<svg width="43" height="43" viewBox="0 0 43 43" fill="none" xmlns="http://www.w3.org/2000/svg">
<path d="M0.929615 19.5832L19.4537 0.793325C20.5007 -0.264442 22.2028 -0.264442 23.2498 0.793325C24.2995 1.85109 24.2995 3.56918 23.2498 4.62695L6.61566 21.4999L23.2498 38.3728C24.2995 39.4306 24.2995 41.1487 23.2498 42.2065C22.2001 43.2642 20.5007 43.2642 19.4537 42.2065L0.932291 23.4166C-0.0797272 22.3994 -0.0824032 20.6035 0.929615 19.5832Z" fill="#2FABE1"/>
<path d="M19.7216 19.5832L38.243 0.793325C39.2927 -0.264442 40.9921 -0.264442 42.0391 0.793325C43.0889 1.85109 43.0889 3.56918 42.0391 4.62695L25.4076 21.4999L42.0418 38.3728C43.0915 39.4306 43.0915 41.1487 42.0418 42.2065C40.9921 43.2642 39.2927 43.2642 38.2457 42.2065L19.7243 23.4166C18.7122 22.3994 18.7096 20.6035 19.7216 19.5832Z" fill="#2FABE1"/>
</svg>
