<svg width="144" height="48" viewBox="0 0 144 48" fill="none" xmlns="http://www.w3.org/2000/svg">
<path d="M0 12C0 5.37258 5.37258 0 12 0H132C138.627 0 144 5.37258 144 12V36C144 42.6274 138.627 48 132 48H12C5.37258 48 0 42.6274 0 36V12Z" fill="#A7E4FF"/>
<mask id="mask0" mask-type="alpha" maskUnits="userSpaceOnUse" x="5" y="0" width="134" height="48">
<path d="M5 12C5 5.37258 10.3726 0 17 0H127C133.627 0 139 5.37258 139 12V36C139 42.6274 133.627 48 127 48H17C10.3726 48 5 42.6274 5 36V12Z" fill="#A7E4FF"/>
</mask>
<g mask="url(#mask0)">
<path d="M109.442 17.9269C109.442 17.9269 105.289 19.0596 104.906 23.9088C104.522 28.7581 106.626 30.4946 106.227 34.4125C105.827 38.3303 102.824 41.5331 102.411 41.9206C102.411 41.9206 101.929 42.3883 102.006 42.8203C102.066 43.2491 104.715 41.3269 106.285 36.1408C107.838 30.9514 104.662 26.8344 105.172 23.9119C105.838 20.0898 109.028 19.057 109.415 18.711C109.828 18.3235 109.786 17.9906 109.442 17.9269Z" fill="#534C8C" fill-opacity="0.09"/>
<path d="M111.446 22.3801C111.397 23.0548 110.895 25.1813 110.409 25.3785C110.011 25.5275 108.388 24.4203 108.414 23.9035C108.44 23.3867 110.456 22.1246 111.009 21.9475C111.406 21.8433 111.472 21.9082 111.446 22.3801Z" fill="#F3BB39"/>
<path d="M110.49 23.6564C106.978 21.088 103.912 14.8413 108.447 7.9144C112.289 2.02359 118.739 -1.33332 124.423 3.06594C130.459 7.72204 129.249 13.4691 124.814 18.9545C120.758 23.9095 113.389 25.7529 110.49 23.6564Z" fill="#FDC543"/>
<path d="M122.535 3.99553L121.842 4.43385L121.119 4.10373L121.284 4.90501L120.739 5.51845L121.534 5.57323L121.936 6.2861L122.242 5.51913L123.052 5.34378L122.431 4.81177L122.535 3.99553Z" fill="white"/>
<path d="M118.733 9.94995L117.499 10.7099L116.212 10.1252L116.523 11.5546L115.548 12.6413L116.96 12.7442L117.666 13.9994L118.235 12.653L119.637 12.3218L118.567 11.3949L118.733 9.94995Z" fill="white"/>
<path d="M111.708 20.9891L110.938 21.3004L109.973 20.8155L110.347 21.6992L109.782 22.2217L110.788 22.4377L111.407 23.2637L111.658 22.54L112.595 22.4969L111.751 21.8214L111.708 20.9891Z" fill="white"/>
<path d="M108.368 18.6207L108.085 19.0266L107.664 18.9969L107.893 19.4109L107.719 19.8875L108.121 19.7443L108.452 20.0371L108.479 19.5467L108.867 19.2613L108.451 19.1014L108.368 18.6207Z" fill="white"/>
<path d="M116.224 21.0726L115.749 21.1687L115.448 20.8686L115.318 21.3191L114.868 21.5383L115.272 21.7172L115.288 22.1815L115.663 21.8346L116.121 21.8879L115.959 21.4903L116.224 21.0726Z" fill="white"/>
<path d="M114.513 16.8526L113.565 17.4482L112.578 17.0025L112.819 18.093L112.062 18.918L113.162 18.9815L113.682 19.9573L114.126 18.9314L115.193 18.6795L114.375 17.9678L114.513 16.8526Z" fill="white"/>
<path d="M112.543 5.29985L111.559 6.24012L110.791 5.98726L110.727 7.14453L109.848 8.2852L110.776 8.08185L111.003 9.02576L111.662 7.74402L112.661 7.18626L112.127 6.60452L112.543 5.29985Z" fill="white"/>
<path d="M125.59 13.6838L124.607 14.624L123.857 14.3829L123.775 15.5284L122.896 16.669L123.824 16.4656L124.051 17.4095L124.71 16.1278L125.708 15.5701L125.175 14.9884L125.59 13.6838Z" fill="white"/>
<path d="M123.116 3.08814L122.722 3.0512L122.029 2.66136L122.438 3.08561L122.205 3.20595L122.861 3.4907L123.413 3.97904L123.404 3.70409L123.979 3.9102L123.316 3.4318L123.116 3.08814Z" fill="white"/>
<path d="M125.939 5.93493L125.688 6.49432L125.255 6.56415L125.515 7.05113L125.392 7.69302L125.798 7.41967L126.155 7.75486L126.143 7.08019L126.487 6.66022L126.078 6.53114L125.939 5.93493Z" fill="white"/>
<path d="M119.555 2.1301L118.937 2.00127L118.817 1.57685L118.38 1.93871L117.745 1.95941L118.072 2.30259L117.825 2.73275L118.446 2.56971L118.919 2.84606L118.97 2.39745L119.555 2.1301Z" fill="white"/>
<path d="M123.983 8.33274L123.211 9.30496L122.247 9.19403L122.609 10.253L122.052 11.4163L123.042 11.1178L123.646 11.9585L123.91 10.6872L124.843 10.0316L123.999 9.57016L123.983 8.33274Z" fill="white"/>
<path d="M119.993 16.0524L118.877 16.5902L118.081 16.0529L117.931 17.1842L116.914 17.9725L117.939 18.1495L118.087 19.1783L118.895 18.1493L119.997 18.0019L119.478 17.1895L119.993 16.0524Z" fill="white"/>
<path d="M127.981 10.1287L127.637 11.2372L127.365 11.3817L127.33 12.289L127.011 13.5199L127.347 12.9911L127.413 13.6176L127.646 12.3587L128.009 11.5023L127.838 11.2861L127.981 10.1287Z" fill="white"/>
<path d="M115.208 2.16418L114.146 2.57605L113.865 2.44919L113.139 3.02321L111.987 3.53696L112.607 3.45487L112.16 3.91466L113.293 3.30878L114.149 3.05821L114.214 2.75313L115.208 2.16418Z" fill="white"/>
<path d="M118.381 4.7604L117.258 5.26743L116.474 4.71122L116.306 5.83077L115.27 6.60728L116.283 6.80323L116.431 7.83201L117.227 6.82194L118.335 6.70533L117.829 5.87391L118.381 4.7604Z" fill="white"/>
<path d="M112.929 11.5959L112.212 12.6037L111.243 12.5424L111.665 13.5873L111.163 14.7861L112.141 14.4261L112.781 15.21L112.966 13.941L113.874 13.2428L113.024 12.831L112.929 11.5959Z" fill="white"/>
<path d="M108.847 14.275L108.328 15.01L107.652 14.9763L107.932 15.7163L107.597 16.5691L108.278 16.3116L108.745 16.8783L108.89 15.9574L109.52 15.454L108.902 15.1646L108.847 14.275Z" fill="white"/>
<path d="M119.746 21.365L118.913 21.6584L118.392 21.2172L118.203 22.0036L117.427 22.4933L118.154 22.6925L118.196 23.4404L118.806 22.7641L119.617 22.7501L119.295 22.1166L119.746 21.365Z" fill="white"/>
<path d="M108.699 9.03363L108.136 10.0837L107.492 10.1233L107.675 11.0933L107.223 12.2941L107.912 11.8577L108.283 12.5745L108.516 11.3129L109.173 10.5625L108.642 10.2216L108.699 9.03363Z" fill="white"/>
<path d="M123.726 18.5712L122.698 19.2161L122.161 18.925L121.828 19.8558L120.856 20.6964L121.658 20.6516L121.622 21.4801L122.453 20.4959L123.386 20.1628L123.096 19.6043L123.726 18.5712Z" fill="white"/>
<path d="M25.3049 44.46C23.1996 47.619 17.426 45.9002 14.8023 44.6459C13.2888 43.9223 8.17116 42.568 10.8216 40.2138C12.8905 38.3762 12.9153 39.7766 16.2498 41.6186C16.1338 40.7201 17.7739 39.5505 20.3975 38.5435C23.0212 37.5365 22.537 40.7068 21.9669 42.4179C23.9568 41.7823 27.4102 41.301 25.3049 44.46Z" fill="white" fill-opacity="0.68"/>
<path d="M90.0057 9.95432C87.9804 13.8456 98.3497 15.9708 103.741 15.2591C106.294 14.5215 109.49 13.7604 110.017 10.5169C110.439 7.92212 106.036 7.43715 103.34 7.79305C103.469 6.58463 102.065 3.43013 98.5492 3.71106C95.5913 3.94742 95.6053 6.69846 96.2797 8.69455C95.0323 7.49312 92.0311 6.06308 90.0057 9.95432Z" fill="white" fill-opacity="0.68"/>
<path d="M17.2059 37.7465C17.2059 37.7465 14.3978 37.5729 13.1395 40.4926C11.8811 43.4124 12.8173 44.9299 11.7451 47.2699C10.6728 49.61 8.14016 50.9593 7.80301 51.1121C7.80301 51.1121 7.40639 51.3 7.363 51.5835C7.30964 51.8614 9.35375 51.23 11.4172 48.3516C13.4707 45.4677 12.3726 42.2515 13.3037 40.5506C14.5206 38.326 16.7119 38.3586 17.0243 38.2261C17.3614 38.0733 17.4051 37.8583 17.2059 37.7465Z" fill="#534C8C" fill-opacity="0.09"/>
<path d="M17.9654 36.6128C17.9062 37.0509 17.4939 38.4181 17.1686 38.5273C16.903 38.6086 15.8887 37.8212 15.9264 37.4851C15.9641 37.149 17.3298 36.4064 17.6973 36.313C17.9609 36.261 18.0011 36.3059 17.9654 36.6128Z" fill="#EC87B1"/>
<path d="M17.2909 37.4072C15.1021 35.5909 13.3526 31.393 16.5882 27.0557C19.3306 23.3665 23.6728 21.4349 27.205 24.5326C30.9561 27.8118 29.9367 31.5126 26.8236 34.9135C23.9793 37.9835 19.0977 38.891 17.2909 37.4072Z" fill="#FFC9DF"/>
<path d="M25.9358 25.0633L25.4664 25.3215L25.0078 25.0772L25.0834 25.6065L24.7035 25.9849L25.2195 26.0525L25.4535 26.5336L25.6835 26.0455L26.2194 25.9636L25.8356 25.5917L25.9358 25.0633Z" fill="white"/>
<path d="M23.2174 28.7955L22.3822 29.2419L21.566 28.8088L21.7114 29.7538L21.0321 30.4237L21.9487 30.5473L22.359 31.3945L22.7845 30.5389L23.7123 30.379L23.0515 29.7315L23.2174 28.7955Z" fill="white"/>
<path d="M18.1916 35.7157L17.6773 35.888L17.067 35.533L17.2759 36.1245L16.8861 36.4427L17.5337 36.6239L17.9044 37.1876L18.0975 36.7255L18.7102 36.7349L18.1865 36.2604L18.1916 35.7157Z" fill="white"/>
<path d="M16.108 34.0368L15.9068 34.2903L15.6333 34.2541L15.7661 34.5333L15.634 34.8373L15.9016 34.7599L16.1063 34.9643L16.1433 34.6454L16.4079 34.4748L16.1429 34.3538L16.108 34.0368Z" fill="white"/>
<path d="M21.1354 35.9512L20.8217 35.9948L20.6372 35.787L20.534 36.0756L20.2319 36.2006L20.4883 36.3335L20.48 36.6371L20.7388 36.4258L21.0354 36.4789L20.9458 36.213L21.1354 35.9512Z" fill="white"/>
<path d="M20.1871 33.1295L19.5449 33.48L18.9191 33.1498L19.0325 33.8708L18.5057 34.3787L19.2205 34.4642L19.5211 35.1216L19.8517 34.4701L20.5576 34.3485L20.0526 33.8514L20.1871 33.1295Z" fill="white"/>
<path d="M19.3652 25.514L18.6857 26.088L18.1947 25.8922L18.1066 26.6446L17.4875 27.3536L18.1016 27.2581L18.2114 27.883L18.6926 27.0732L19.3667 26.7493L19.0419 26.3484L19.3652 25.514Z" fill="white"/>
<path d="M27.5415 31.5059L26.862 32.0799L26.3826 31.8926L26.283 32.6365L25.664 33.3454L26.278 33.25L26.3878 33.8748L26.8689 33.065L27.543 32.7412L27.2182 32.3404L27.5415 31.5059Z" fill="white"/>
<path d="M26.3517 24.4946L26.0956 24.4547L25.659 24.1727L25.9094 24.4658L25.7524 24.535L26.1686 24.747L26.5092 25.0877L26.5149 24.908L26.8816 25.0655L26.4682 24.7268L26.3517 24.4946Z" fill="white"/>
<path d="M28.0791 26.4648L27.8925 26.8197L27.6078 26.8479L27.7578 27.176L27.6519 27.5899L27.9278 27.4278L28.1467 27.6607L28.1663 27.2201L28.4076 26.9599L28.1457 26.8593L28.0791 26.4648Z" fill="white"/>
<path d="M24.0664 23.7269L23.6684 23.6181L23.6075 23.3364L23.3079 23.555L22.8927 23.543L23.092 23.78L22.9136 24.0507L23.3257 23.9693L23.623 24.1685L23.6745 23.8779L24.0664 23.7269Z" fill="white"/>
<path d="M26.7067 27.9507L26.1641 28.554L25.54 28.443L25.7336 29.1484L25.3234 29.885L25.9816 29.7299L26.3417 30.3025L26.5649 29.4837L27.1998 29.0934L26.6675 28.7586L26.7067 27.9507Z" fill="white"/>
<path d="M23.7952 32.827L23.0452 33.1331L22.5473 32.7507L22.4045 33.4828L21.7094 33.9563L22.3708 34.1128L22.4263 34.7899L22.9947 34.1509L23.7191 34.0989L23.4137 33.5481L23.7952 32.827Z" fill="white"/>
<path d="M29.2431 29.2825L28.9746 29.9918L28.7913 30.0752L28.7318 30.6657L28.4748 31.4559L28.7151 31.1244L28.7327 31.5358L28.9352 30.7238L29.2068 30.1797L29.1035 30.0318L29.2431 29.2825Z" fill="white"/>
<path d="M21.229 23.575L20.5198 23.8011L20.3416 23.7071L19.8451 24.0525L19.0728 24.3415L19.4807 24.3128L19.1708 24.5949L19.9344 24.245L20.503 24.1158L20.5573 23.9194L21.229 23.575Z" fill="white"/>
<path d="M23.1951 25.3958L22.4423 25.6816L21.953 25.2874L21.7987 26.011L21.0921 26.4761L21.7449 26.6445L21.8003 27.3216L22.3602 26.6945L23.0875 26.6628L22.7907 26.1001L23.1951 25.3958Z" fill="white"/>
<path d="M19.3652 29.6368L18.857 30.2655L18.2272 30.1868L18.461 30.8853L18.0853 31.6473L18.7378 31.4516L19.1238 31.9886L19.2953 31.1682L19.9159 30.7491L19.3778 30.4464L19.3652 29.6368Z" fill="white"/>
<path d="M16.5944 31.2211L16.2269 31.6798L15.7869 31.6308L15.9399 32.1247L15.6876 32.6677L16.1417 32.527L16.424 32.9154L16.5555 32.3204L16.9865 32.0172L16.5951 31.8037L16.5944 31.2211Z" fill="white"/>
<path d="M23.4209 36.2829L22.8661 36.441L22.5436 36.1323L22.3889 36.6377L21.8629 36.9261L22.3291 37.0852L22.3268 37.5747L22.7519 37.158L23.2812 37.1813L23.0966 36.7552L23.4209 36.2829Z" fill="white"/>
<path d="M16.7082 27.7958L16.2985 28.4582L15.8767 28.4583L15.9578 29.0985L15.6143 29.8637L16.0818 29.6066L16.2947 30.0891L16.4975 29.2754L16.9562 28.8121L16.623 28.5685L16.7082 27.7958Z" fill="white"/>
<path d="M26.1296 34.6196L25.433 34.9991L25.0943 34.7877L24.8397 35.3816L24.1719 35.891L24.6969 35.8939L24.6401 36.433L25.2217 35.8242L25.844 35.6443L25.6772 35.2684L26.1296 34.6196Z" fill="white"/>
<path d="M48.8608 8.33083C50.2928 11.082 42.9615 12.5846 39.15 12.0813C37.3451 11.5599 35.085 11.0218 34.7124 8.72861C34.4143 6.89404 37.5272 6.55117 39.433 6.80279C39.3424 5.94842 40.3348 3.71815 42.8205 3.91678C44.9118 4.08389 44.9018 6.0289 44.425 7.44016C45.3069 6.59074 47.4288 5.57968 48.8608 8.33083Z" fill="white" fill-opacity="0.68"/>
<path d="M57.7369 47.3422C56.4268 49.7543 60.6369 50.754 64.8904 50.7116C66.8727 50.4266 73.6167 51.4066 73.7804 49.3038C73.9114 47.6215 70.2095 46.9369 68.0827 46.9581C68.0891 46.1692 66.8597 43.9862 64.0713 43.8926C61.7253 43.814 61.9049 45.0402 62.6027 46.4136C61.51 45.5201 59.0471 44.9301 57.7369 47.3422Z" fill="white" fill-opacity="0.68"/>
<path d="M132.527 41.2758C131.856 44.574 126.541 45.0952 123.967 44.9436C122.482 44.8562 117.827 45.4571 119.215 42.6373C120.299 40.4362 120.788 41.5775 124.142 41.9738C123.746 41.275 124.701 39.7658 126.518 38.061C128.335 36.3561 128.998 39.121 129.103 40.7165C130.524 39.5287 133.198 37.9777 132.527 41.2758Z" fill="white" fill-opacity="0.68"/>
</g>
<path d="M110.145 43.8158C110.145 43.8158 109.37 42.0585 110.943 40.5628C112.515 39.0671 113.708 39.3081 114.954 38.0685C116.199 36.8289 116.465 34.8882 116.483 34.6361C116.483 34.6361 116.509 34.3377 116.681 34.243C116.846 34.1431 116.925 35.6014 115.569 37.6029C114.207 39.5994 111.888 39.6561 111.019 40.6543C109.882 41.9592 110.42 43.3548 110.409 43.5862C110.391 43.8382 110.264 43.917 110.145 43.8158Z" fill="#534C8C" fill-opacity="0.09"/>
<path d="M117.686 33.4699C117.655 33.7702 117.406 34.7125 117.187 34.7946C117.008 34.8563 116.297 34.3429 116.315 34.1127C116.333 33.8825 117.247 33.344 117.496 33.2716C117.674 33.23 117.703 33.2597 117.686 33.4699Z" fill="#F3BB39"/>
<path d="M117.244 34.0275C115.708 32.8396 114.416 30.0167 116.522 26.9821C118.307 24.4013 121.224 22.982 123.706 25.0126C126.342 27.162 125.733 29.7105 123.688 32.1034C121.82 34.2643 118.511 34.9975 117.244 34.0275Z" fill="#FDC543"/>
<path d="M122.746 25.3355L122.437 25.5311L122.114 25.3838L122.188 25.7413L121.945 26.015L122.299 26.0394L122.479 26.3575L122.615 26.0153L122.977 25.9371L122.7 25.6997L122.746 25.3355Z" fill="white"/>
<path d="M121.049 27.9922L120.499 28.3312L119.925 28.0703L120.063 28.7081L119.629 29.1929L120.258 29.2388L120.573 29.7988L120.827 29.1981L121.453 29.0504L120.976 28.6368L121.049 27.9922Z" fill="white"/>
<path d="M117.916 32.9172L117.572 33.0561L117.142 32.8398L117.309 33.2341L117.057 33.4672L117.505 33.5635L117.781 33.932L117.894 33.6091L118.312 33.5899L117.935 33.2886L117.916 32.9172Z" fill="white"/>
<path d="M116.426 31.8606L116.299 32.0417L116.111 32.0284L116.213 32.2131L116.136 32.4258L116.315 32.3619L116.463 32.4925L116.475 32.2737L116.648 32.1464L116.463 32.075L116.426 31.8606Z" fill="white"/>
<path d="M119.931 32.9545L119.719 32.9973L119.584 32.8635L119.526 33.0645L119.326 33.1622L119.506 33.2421L119.513 33.4492L119.68 33.2945L119.885 33.3182L119.812 33.1408L119.931 32.9545Z" fill="white"/>
<path d="M119.167 31.0718L118.744 31.3375L118.304 31.1387L118.411 31.6251L118.073 31.9933L118.564 32.0216L118.796 32.4569L118.994 31.9992L119.47 31.8868L119.105 31.5693L119.167 31.0718Z" fill="white"/>
<path d="M118.288 25.9175L117.849 26.337L117.506 26.2242L117.478 26.7405L117.086 27.2494L117.5 27.1587L117.601 27.5798L117.895 27.0079L118.341 26.7591L118.103 26.4995L118.288 25.9175Z" fill="white"/>
<path d="M124.109 29.658L123.67 30.0774L123.336 29.9699L123.299 30.4809L122.907 30.9898L123.321 30.8991L123.422 31.3202L123.716 30.7484L124.162 30.4995L123.924 30.24L124.109 29.658Z" fill="white"/>
<path d="M123.006 24.9307L122.829 24.9143L122.52 24.7403L122.703 24.9296L122.599 24.9833L122.891 25.1103L123.138 25.3282L123.134 25.2055L123.39 25.2975L123.095 25.0841L123.006 24.9307Z" fill="white"/>
<path d="M124.265 26.2008L124.152 26.4504L123.96 26.4816L124.076 26.6988L124.021 26.9852L124.202 26.8633L124.361 27.0128L124.356 26.7118L124.509 26.5244L124.327 26.4668L124.265 26.2008Z" fill="white"/>
<path d="M121.416 24.5033L121.14 24.4458L121.087 24.2565L120.892 24.4179L120.609 24.4271L120.754 24.5802L120.644 24.7722L120.922 24.6994L121.132 24.8227L121.155 24.6226L121.416 24.5033Z" fill="white"/>
<path d="M123.392 27.2706L123.048 27.7044L122.618 27.6549L122.779 28.1274L122.531 28.6464L122.973 28.5132L123.242 28.8883L123.36 28.3211L123.776 28.0286L123.399 27.8227L123.392 27.2706Z" fill="white"/>
<path d="M121.612 30.7147L121.114 30.9546L120.759 30.715L120.692 31.2197L120.238 31.5714L120.695 31.6504L120.761 32.1094L121.122 31.6503L121.613 31.5845L121.382 31.222L121.612 30.7147Z" fill="white"/>
<path d="M125.176 28.0719L125.022 28.5664L124.901 28.6309L124.885 29.0357L124.743 29.5849L124.893 29.349L124.922 29.6285L125.026 29.0668L125.189 28.6847L125.112 28.5883L125.176 28.0719Z" fill="white"/>
<path d="M119.477 24.5185L119.003 24.7022L118.878 24.6457L118.554 24.9017L118.04 25.131L118.317 25.0943L118.117 25.2995L118.623 25.0292L119.005 24.9174L119.034 24.7813L119.477 24.5185Z" fill="white"/>
<path d="M120.893 25.6768L120.392 25.903L120.042 25.6548L119.967 26.1543L119.505 26.5008L119.957 26.5882L120.023 27.0472L120.378 26.5965L120.872 26.5445L120.646 26.1736L120.893 25.6768Z" fill="white"/>
<path d="M118.46 28.7265L118.14 29.1761L117.708 29.1488L117.896 29.6149L117.672 30.1498L118.109 29.9891L118.394 30.3389L118.477 29.7728L118.882 29.4612L118.503 29.2775L118.46 28.7265Z" fill="white"/>
<path d="M116.639 29.9217L116.408 30.2496L116.106 30.2346L116.231 30.5647L116.082 30.9452L116.385 30.8303L116.594 31.0832L116.659 30.6723L116.94 30.4477L116.664 30.3186L116.639 29.9217Z" fill="white"/>
<path d="M121.502 33.085L121.131 33.2159L120.898 33.019L120.814 33.3698L120.467 33.5883L120.792 33.6772L120.811 34.0109L121.083 33.7092L121.444 33.7029L121.301 33.4203L121.502 33.085Z" fill="white"/>
<path d="M116.574 27.5833L116.322 28.0518L116.035 28.0694L116.117 28.5022L115.915 29.038L116.223 28.8432L116.388 29.163L116.492 28.6002L116.785 28.2654L116.548 28.1133L116.574 27.5833Z" fill="white"/>
<path d="M123.278 31.8385L122.819 32.1262L122.579 31.9964L122.431 32.4116L121.997 32.7867L122.355 32.7667L122.339 33.1363L122.709 32.6972L123.126 32.5486L122.997 32.2995L123.278 31.8385Z" fill="white"/>
</svg>
