<svg width="377" height="70" viewBox="0 0 377 70" fill="none" xmlns="http://www.w3.org/2000/svg">
<path d="M107.793 44.98C107.412 44.98 107.117 44.9973 106.909 45.032C106.736 45.0667 106.58 45.136 106.441 45.24C106.337 45.3093 106.233 45.448 106.129 45.656C106.06 45.864 105.973 46.1413 105.869 46.488C105.696 47.112 105.505 47.736 105.297 48.36C105.089 48.9493 104.898 49.556 104.725 50.18C104.482 51.3587 103.789 51.948 102.645 51.948C101.397 52.0173 100.149 52.052 98.9011 52.052C97.6877 52.052 96.4571 52.0693 95.2091 52.104C94.6544 52.104 94.4637 51.8267 94.6371 51.272C95.4691 48.776 96.2837 46.28 97.0811 43.784C97.9131 41.2533 98.7277 38.7227 99.5251 36.192C100.01 34.6667 100.461 33.1587 100.877 31.668C101.293 30.1427 101.744 28.6173 102.229 27.092C102.576 26.052 102.922 25.012 103.269 23.972C103.65 22.932 103.997 21.8747 104.309 20.8C104.517 20.1067 104.829 19.6213 105.245 19.344C105.661 19.0667 106.181 18.928 106.805 18.928C107.533 18.9627 108.244 18.9973 108.937 19.032C109.665 19.032 110.376 19.032 111.069 19.032C111.866 19.032 112.664 19.032 113.461 19.032C114.258 18.9973 115.056 18.98 115.853 18.98C116.304 18.98 116.737 18.98 117.153 18.98C117.604 18.9453 118.054 18.928 118.505 18.928C118.921 18.928 119.25 18.9453 119.493 18.98C119.736 19.0147 119.926 19.084 120.065 19.188C120.204 19.292 120.308 19.4653 120.377 19.708C120.481 19.916 120.585 20.228 120.689 20.644C121.382 23.348 122.076 26.052 122.769 28.756C123.462 31.4253 124.173 34.112 124.901 36.816C125.456 38.8613 126.01 40.872 126.565 42.848C127.154 44.824 127.744 46.8173 128.333 48.828C128.541 49.66 128.68 50.3013 128.749 50.752C128.853 51.168 128.836 51.48 128.697 51.688C128.593 51.896 128.35 52 127.969 52C127.622 52.0347 127.102 52.0347 126.409 52C125.23 52 124.052 51.9827 122.873 51.948C121.729 51.9133 120.568 51.8787 119.389 51.844C118.765 51.8093 118.401 51.4973 118.297 50.908C118.228 50.388 118.141 49.868 118.037 49.348C117.933 48.7933 117.829 48.256 117.725 47.736C117.656 47.4587 117.586 47.1987 117.517 46.956C117.448 46.7133 117.378 46.4533 117.309 46.176C117.136 45.4827 116.72 45.136 116.061 45.136C115.61 45.1707 115.16 45.188 114.709 45.188C114.293 45.1533 113.877 45.136 113.461 45.136C113.461 45.136 113.253 45.136 112.837 45.136C112.421 45.1013 111.918 45.084 111.329 45.084C110.74 45.0493 110.116 45.032 109.457 45.032C108.798 44.9973 108.244 44.98 107.793 44.98ZM113.045 26.988C112.976 26.884 112.872 27.0053 112.733 27.352C112.594 27.664 112.49 27.872 112.421 27.976L111.017 32.188C110.636 33.2973 110.237 34.424 109.821 35.568C109.405 36.712 109.006 37.856 108.625 39C108.452 39.4853 108.417 39.7973 108.521 39.936C108.66 40.0747 108.989 40.144 109.509 40.144C110.341 40.1787 111.173 40.196 112.005 40.196C112.837 40.196 113.669 40.196 114.501 40.196C115.16 40.1613 115.541 40.092 115.645 39.988C115.749 39.8493 115.714 39.4333 115.541 38.74C115.264 37.3187 114.969 35.9147 114.657 34.528C114.345 33.1413 114.033 31.7373 113.721 30.316C113.652 30.0733 113.582 29.7613 113.513 29.38C113.478 28.9987 113.426 28.6347 113.357 28.288C113.288 27.9413 113.218 27.6467 113.149 27.404C113.114 27.1267 113.08 26.988 113.045 26.988ZM156.037 18.408C156.176 18.512 156.262 18.7547 156.297 19.136C156.332 19.5173 156.349 19.9333 156.349 20.384C156.384 20.8347 156.401 21.2507 156.401 21.632C156.401 21.9787 156.436 22.1867 156.505 22.256C156.574 22.4293 156.696 22.5333 156.869 22.568C157.077 22.6027 157.268 22.6373 157.441 22.672C160.492 22.9493 162.988 23.608 164.929 24.648C166.87 25.688 168.188 26.9187 168.881 28.34C169.54 29.7613 170.06 31.2173 170.441 32.708C170.996 34.996 170.926 37.1107 170.233 39.052C169.54 40.9587 168.482 42.744 167.061 44.408C166.056 45.6213 164.842 46.5573 163.421 47.216C162 47.84 160.492 48.256 158.897 48.464C158.308 48.568 157.857 48.6547 157.545 48.724C157.268 48.7933 157.042 48.9147 156.869 49.088C156.73 49.2267 156.644 49.452 156.609 49.764C156.609 50.076 156.609 50.5093 156.609 51.064V51.896C156.609 52.52 156.28 52.884 155.621 52.988C154.477 53.092 153.333 53.144 152.189 53.144C151.08 53.1787 149.953 53.0747 148.809 52.832C148.116 52.728 147.769 52.3293 147.769 51.636C147.734 51.1507 147.682 50.6653 147.613 50.18C147.578 49.66 147.544 49.1573 147.509 48.672C147.024 48.568 146.538 48.4813 146.053 48.412C145.568 48.308 145.082 48.204 144.597 48.1C143.904 47.9267 143.21 47.7707 142.517 47.632C141.858 47.4933 141.182 47.32 140.489 47.112C139.588 46.8 138.704 46.4013 137.837 45.916C137.005 45.4307 136.225 44.824 135.497 44.096C134.804 43.368 134.214 42.5187 133.729 41.548C133.244 40.5773 132.897 39.468 132.689 38.22C132.342 36.244 132.412 34.3893 132.897 32.656C133.417 30.888 134.214 29.1893 135.289 27.56C135.878 26.6933 136.572 25.9653 137.369 25.376C138.166 24.7867 139.05 24.3013 140.021 23.92C141.026 23.504 142.066 23.1747 143.141 22.932C144.25 22.6893 145.36 22.5507 146.469 22.516C146.816 22.516 147.093 22.4987 147.301 22.464C147.509 22.4293 147.648 22.36 147.717 22.256C147.821 22.152 147.873 21.996 147.873 21.788C147.908 21.5453 147.925 21.2333 147.925 20.852V20.072C147.821 19.136 147.908 18.564 148.185 18.356C148.497 18.1133 149.086 17.9573 149.953 17.888C150.161 17.8533 150.56 17.8533 151.149 17.888C151.773 17.888 152.414 17.9053 153.073 17.94C153.766 17.9747 154.39 18.044 154.945 18.148C155.534 18.2173 155.898 18.304 156.037 18.408ZM147.769 34.476H147.821C147.821 33.8867 147.821 33.3147 147.821 32.76C147.856 32.2053 147.873 31.6333 147.873 31.044C147.838 30.4547 147.769 30.0733 147.665 29.9C147.561 29.7267 147.197 29.6747 146.573 29.744C146.261 29.744 145.793 29.9 145.169 30.212C144.58 30.4893 143.99 30.888 143.401 31.408C142.812 31.8933 142.292 32.4653 141.841 33.124C141.425 33.7827 141.234 34.4933 141.269 35.256C141.304 36.3653 141.529 37.3013 141.945 38.064C142.396 38.792 142.881 39.3813 143.401 39.832C143.956 40.2827 144.51 40.5947 145.065 40.768C145.654 40.9413 146.14 41.028 146.521 41.028C146.833 40.9933 147.093 40.9413 147.301 40.872C147.544 40.8027 147.682 40.5253 147.717 40.04C147.717 39.104 147.717 38.1853 147.717 37.284C147.752 36.348 147.769 35.412 147.769 34.476ZM156.297 40.3C156.297 40.8893 156.557 41.132 157.077 41.028C157.909 40.8547 158.689 40.612 159.417 40.3C160.18 39.9533 160.804 39.4333 161.289 38.74C161.982 37.8387 162.346 36.868 162.381 35.828C162.45 34.788 162.294 33.7307 161.913 32.656C161.532 31.7547 160.977 31.148 160.249 30.836C159.521 30.524 158.758 30.2813 157.961 30.108C157.892 30.108 157.753 30.0733 157.545 30.004C157.06 29.9347 156.748 29.952 156.609 30.056C156.47 30.1253 156.384 30.4027 156.349 30.888C156.349 31.2693 156.332 31.8933 156.297 32.76C156.297 33.6267 156.297 34.5627 156.297 35.568C156.297 36.5387 156.297 37.4747 156.297 38.376C156.297 39.2427 156.297 39.884 156.297 40.3ZM173.276 19.968C173.276 19.344 173.345 18.98 173.484 18.876C173.657 18.7373 174.073 18.7027 174.732 18.772C175.425 18.8413 176.119 18.876 176.812 18.876C177.54 18.8413 178.251 18.8413 178.944 18.876C179.36 18.876 179.776 18.8587 180.192 18.824C180.643 18.7893 181.093 18.8067 181.544 18.876C182.064 18.9453 182.411 19.1013 182.584 19.344C182.792 19.552 182.896 19.9333 182.896 20.488C182.931 20.6613 182.931 20.8347 182.896 21.008C182.896 21.1467 182.896 21.3027 182.896 21.476V35.204C182.896 35.4467 182.896 35.6893 182.896 35.932C182.896 36.14 182.913 36.3653 182.948 36.608C182.948 36.8507 183.035 37.0067 183.208 37.076C183.416 37.076 183.572 36.9893 183.676 36.816C183.815 36.712 183.936 36.5907 184.04 36.452C184.144 36.3133 184.231 36.1747 184.3 36.036C186.068 33.5747 187.801 31.0093 189.5 28.34C191.233 25.636 192.967 23.0707 194.7 20.644C195.116 19.9507 195.601 19.4653 196.156 19.188C196.711 18.876 197.456 18.7373 198.392 18.772C199.293 18.876 200.212 18.9107 201.148 18.876C202.119 18.8413 203.055 18.8413 203.956 18.876C204.788 18.9453 205.325 19.1013 205.568 19.344C205.811 19.5867 205.915 20.124 205.88 20.956C205.811 24.492 205.776 28.132 205.776 31.876C205.811 35.5853 205.793 39.208 205.724 42.744C205.689 44.096 205.689 45.3787 205.724 46.592C205.759 47.7707 205.793 49.036 205.828 50.388C205.828 50.6307 205.828 50.8387 205.828 51.012C205.863 51.1853 205.863 51.3933 205.828 51.636C205.793 51.948 205.689 52.1907 205.516 52.364C205.343 52.572 205.083 52.6413 204.736 52.572C203.627 52.5373 202.5 52.4853 201.356 52.416C200.212 52.3813 199.068 52.3813 197.924 52.416C197.681 52.416 197.439 52.3987 197.196 52.364C196.953 52.364 196.728 52.312 196.52 52.208C196.381 52.1387 196.243 52.0173 196.104 51.844C196 51.6707 195.948 51.4973 195.948 51.324C196.017 50.0413 196.017 48.6547 195.948 47.164C195.879 45.6733 195.879 44.2867 195.948 43.004C195.983 41.7213 196 40.456 196 39.208C196 37.9253 196.017 36.6427 196.052 35.36C196.052 35.2907 196.035 35.1867 196 35.048C195.965 34.9093 195.879 34.84 195.74 34.84C195.636 34.84 195.549 34.8747 195.48 34.944C195.445 35.0133 195.393 35.0827 195.324 35.152C193.66 37.1973 191.996 39.416 190.332 41.808C188.668 44.1653 187.143 46.488 185.756 48.776C185.479 49.192 185.201 49.608 184.924 50.024C184.681 50.44 184.421 50.856 184.144 51.272C183.832 51.792 183.451 52.1213 183 52.26C182.549 52.3987 182.047 52.5027 181.492 52.572C181.076 52.6067 180.66 52.6067 180.244 52.572C179.863 52.572 179.464 52.572 179.048 52.572C178.355 52.5373 177.644 52.5373 176.916 52.572C176.223 52.6413 175.529 52.6413 174.836 52.572C174.039 52.5027 173.553 52.364 173.38 52.156C173.241 51.948 173.189 51.428 173.224 50.596C173.293 49.3133 173.328 48.048 173.328 46.8C173.363 45.5173 173.38 44.2347 173.38 42.952C173.38 41.6347 173.363 40.3347 173.328 39.052C173.293 37.7347 173.259 36.4173 173.224 35.1C173.224 35.1 173.224 34.84 173.224 34.32C173.259 33.8 173.276 33.124 173.276 32.292C173.276 31.46 173.276 30.5067 173.276 29.432C173.276 28.3573 173.276 27.2653 173.276 26.156C173.276 25.012 173.276 23.9027 173.276 22.828C173.276 21.7533 173.276 20.8 173.276 19.968ZM223.612 52.104C221.844 52.0693 220.093 52.0347 218.36 52C216.627 52 214.876 51.9827 213.108 51.948C212.761 51.948 212.501 51.9307 212.328 51.896C211.739 51.8267 211.34 51.688 211.132 51.48C210.959 51.2373 210.872 50.8213 210.872 50.232C210.803 47.84 210.785 45.4827 210.82 43.16C210.855 40.8373 210.855 38.48 210.82 36.088C210.785 34.1813 210.768 32.2747 210.768 30.368C210.803 28.4613 210.82 26.5373 210.82 24.596C210.855 23.7987 210.855 23.1573 210.82 22.672C210.785 22.1867 210.751 21.5453 210.716 20.748C210.716 20.5053 210.733 20.28 210.768 20.072C210.803 19.864 210.837 19.6387 210.872 19.396C211.045 18.876 211.392 18.6333 211.912 18.668C212.259 18.7027 212.709 18.7373 213.264 18.772C213.819 18.772 214.373 18.772 214.928 18.772C215.517 18.772 216.037 18.772 216.488 18.772C216.973 18.7373 217.268 18.72 217.372 18.72C217.823 18.6853 218.187 18.6853 218.464 18.72C218.741 18.7547 218.949 18.8413 219.088 18.98C219.261 19.084 219.383 19.2747 219.452 19.552C219.521 19.7947 219.573 20.1413 219.608 20.592C219.781 22.7413 219.851 24.7867 219.816 26.728C219.781 28.6693 219.799 30.732 219.868 32.916C219.903 34.372 219.885 35.8627 219.816 37.388C219.747 38.9133 219.747 40.404 219.816 41.86C219.851 42.3453 219.92 42.6573 220.024 42.796C220.163 42.9 220.492 42.9693 221.012 43.004C221.879 43.0733 222.815 43.0907 223.82 43.056C224.825 42.9867 225.744 42.9693 226.576 43.004C227.408 43.0387 227.911 42.9867 228.084 42.848C228.257 42.6747 228.327 42.1893 228.292 41.392C228.292 40.0747 228.275 38.7747 228.24 37.492C228.205 36.1747 228.188 34.8573 228.188 33.54C228.188 31.668 228.188 29.8307 228.188 28.028C228.223 26.1907 228.24 24.336 228.24 22.464C228.24 21.9093 228.257 21.4587 228.292 21.112C228.327 20.7307 228.309 20.2627 228.24 19.708C228.171 19.0147 228.448 18.668 229.072 18.668C230.251 18.7373 231.377 18.7373 232.452 18.668C233.561 18.5987 234.705 18.616 235.884 18.72C236.369 18.7893 236.681 18.9107 236.82 19.084C236.959 19.2573 237.028 19.6387 237.028 20.228C237.063 23.244 237.08 26.2427 237.08 29.224C237.08 32.1707 237.08 35.152 237.08 38.168C237.08 38.8267 237.08 39.4853 237.08 40.144C237.115 40.768 237.149 41.392 237.184 42.016C237.219 42.5013 237.305 42.8133 237.444 42.952C237.617 43.0907 237.947 43.16 238.432 43.16C239.368 43.1947 240.304 43.212 241.24 43.212C242.176 43.1773 243.129 43.16 244.1 43.16C244.689 43.16 244.984 42.8827 244.984 42.328V39.468C244.949 38.0467 244.932 36.6427 244.932 35.256C244.967 33.8693 244.949 32.448 244.88 30.992C244.811 29.2587 244.759 27.56 244.724 25.896C244.724 24.1973 244.689 22.4813 244.62 20.748C244.62 20.6093 244.603 20.488 244.568 20.384C244.568 20.2453 244.568 20.0893 244.568 19.916C244.568 19.5347 244.637 19.2747 244.776 19.136C244.949 18.9627 245.244 18.876 245.66 18.876C246.735 18.876 247.775 18.876 248.78 18.876C249.785 18.876 250.843 18.8933 251.952 18.928C252.333 18.9627 252.628 19.0667 252.836 19.24C253.044 19.4133 253.165 19.7947 253.2 20.384C253.304 23.7467 253.373 27.1093 253.408 30.472C253.477 33.8 253.425 37.1627 253.252 40.56C253.183 42.12 253.165 43.6453 253.2 45.136C253.269 46.592 253.304 48.1 253.304 49.66C253.304 50.7347 253.148 51.4107 252.836 51.688C252.559 51.9653 251.9 52.104 250.86 52.104C250.271 52.104 249.231 52.104 247.74 52.104C246.284 52.1387 244.603 52.156 242.696 52.156C240.824 52.156 238.831 52.156 236.716 52.156C234.601 52.156 232.625 52.156 230.788 52.156C228.985 52.156 227.425 52.1387 226.108 52.104C224.791 52.104 223.959 52.104 223.612 52.104ZM272.635 44.98C272.254 44.98 271.959 44.9973 271.751 45.032C271.578 45.0667 271.422 45.136 271.283 45.24C271.179 45.3093 271.075 45.448 270.971 45.656C270.902 45.864 270.815 46.1413 270.711 46.488C270.538 47.112 270.347 47.736 270.139 48.36C269.931 48.9493 269.74 49.556 269.567 50.18C269.324 51.3587 268.631 51.948 267.487 51.948C266.239 52.0173 264.991 52.052 263.743 52.052C262.53 52.052 261.299 52.0693 260.051 52.104C259.496 52.104 259.306 51.8267 259.479 51.272C260.311 48.776 261.126 46.28 261.923 43.784C262.755 41.2533 263.57 38.7227 264.367 36.192C264.852 34.6667 265.303 33.1587 265.719 31.668C266.135 30.1427 266.586 28.6173 267.071 27.092C267.418 26.052 267.764 25.012 268.111 23.972C268.492 22.932 268.839 21.8747 269.151 20.8C269.359 20.1067 269.671 19.6213 270.087 19.344C270.503 19.0667 271.023 18.928 271.647 18.928C272.375 18.9627 273.086 18.9973 273.779 19.032C274.507 19.032 275.218 19.032 275.911 19.032C276.708 19.032 277.506 19.032 278.303 19.032C279.1 18.9973 279.898 18.98 280.695 18.98C281.146 18.98 281.579 18.98 281.995 18.98C282.446 18.9453 282.896 18.928 283.347 18.928C283.763 18.928 284.092 18.9453 284.335 18.98C284.578 19.0147 284.768 19.084 284.907 19.188C285.046 19.292 285.15 19.4653 285.219 19.708C285.323 19.916 285.427 20.228 285.531 20.644C286.224 23.348 286.918 26.052 287.611 28.756C288.304 31.4253 289.015 34.112 289.743 36.816C290.298 38.8613 290.852 40.872 291.407 42.848C291.996 44.824 292.586 46.8173 293.175 48.828C293.383 49.66 293.522 50.3013 293.591 50.752C293.695 51.168 293.678 51.48 293.539 51.688C293.435 51.896 293.192 52 292.811 52C292.464 52.0347 291.944 52.0347 291.251 52C290.072 52 288.894 51.9827 287.715 51.948C286.571 51.9133 285.41 51.8787 284.231 51.844C283.607 51.8093 283.243 51.4973 283.139 50.908C283.07 50.388 282.983 49.868 282.879 49.348C282.775 48.7933 282.671 48.256 282.567 47.736C282.498 47.4587 282.428 47.1987 282.359 46.956C282.29 46.7133 282.22 46.4533 282.151 46.176C281.978 45.4827 281.562 45.136 280.903 45.136C280.452 45.1707 280.002 45.188 279.551 45.188C279.135 45.1533 278.719 45.136 278.303 45.136C278.303 45.136 278.095 45.136 277.679 45.136C277.263 45.1013 276.76 45.084 276.171 45.084C275.582 45.0493 274.958 45.032 274.299 45.032C273.64 44.9973 273.086 44.98 272.635 44.98ZM277.887 26.988C277.818 26.884 277.714 27.0053 277.575 27.352C277.436 27.664 277.332 27.872 277.263 27.976L275.859 32.188C275.478 33.2973 275.079 34.424 274.663 35.568C274.247 36.712 273.848 37.856 273.467 39C273.294 39.4853 273.259 39.7973 273.363 39.936C273.502 40.0747 273.831 40.144 274.351 40.144C275.183 40.1787 276.015 40.196 276.847 40.196C277.679 40.196 278.511 40.196 279.343 40.196C280.002 40.1613 280.383 40.092 280.487 39.988C280.591 39.8493 280.556 39.4333 280.383 38.74C280.106 37.3187 279.811 35.9147 279.499 34.528C279.187 33.1413 278.875 31.7373 278.563 30.316C278.494 30.0733 278.424 29.7613 278.355 29.38C278.32 28.9987 278.268 28.6347 278.199 28.288C278.13 27.9413 278.06 27.6467 277.991 27.404C277.956 27.1267 277.922 26.988 277.887 26.988Z" fill="#EE3E88"/>
<path d="M39.1192 51.5493C39.1192 51.5493 44.7789 58.6001 47.8403 55.55C50.9017 52.4998 49.2705 47.1253 51.8533 44.8325C54.436 42.5398 59.8045 45.7795 60.5144 46.2663C60.5144 46.2663 61.351 46.8221 61.4886 46.3382C61.6455 45.8896 57.3927 42.327 52.7071 43.3729C48.0407 44.4543 49.7025 53.7337 47.5177 55.0385C44.6621 56.7476 40.2275 51.4584 39.5712 50.9885C38.8612 50.5018 38.735 50.8428 39.1192 51.5493Z" fill="#534C8C"/>
<path d="M36.525 48.8424C36.7276 49.8622 37.9711 53.0339 38.7859 53.231C39.4408 53.3781 41.7308 51.255 41.5742 50.4814C41.3984 49.6728 38.0206 48.1804 37.1221 48.073C36.452 47.9791 36.3683 48.0688 36.525 48.8424Z" fill="#E9426B"/>
<path d="M38.8906 50.2093C43.5432 45.1098 44.4198 35.5211 35.6022 26.0882C26.819 16.637 17.9331 17.2199 11.4752 23.5527C4.53001 30.3711 7.71346 42.1303 15.8625 49.5263C23.9353 56.7824 35.0414 54.4288 38.8906 50.2093Z" fill="#EE3A85"/>
<path opacity="0.29" d="M23.7656 43.7117C16.838 41.3976 11.6689 35.9778 7.97427 29.772C6.53852 36.2287 9.83034 44.0495 15.8418 49.4718C23.9017 56.7833 35.0452 54.4107 38.8955 50.1899C40.8035 48.0887 42.082 45.239 42.2891 41.9668C36.8294 45.1033 30.1062 45.842 23.7656 43.7117Z" fill="#E9426B"/>
<path opacity="0.7" d="M13.7899 26.4734C15.9464 24.4484 18.5647 23.2745 21.5027 22.9365C22.505 22.8115 22.1193 21.2787 21.1515 21.3852C17.9332 21.7819 15.0578 23.1392 12.6787 25.3293C11.9649 25.9863 13.0609 27.1844 13.7899 26.4734Z" fill="#F8C3D0"/>
<path opacity="0.7" d="M23.5719 22.9642C24.3656 23.0384 25.148 23.2544 25.9191 23.612C26.3123 23.7642 26.7737 23.4729 26.8803 23.0996C27.0021 22.6729 26.7384 22.2708 26.3453 22.1186C25.4673 21.7275 24.5437 21.4964 23.6088 21.407C22.6013 21.2658 22.5835 22.8581 23.5719 22.9642Z" fill="#F8C3D0"/>
<path d="M45.6095 30.6021C45.545 30.895 45.4418 31.1953 45.2852 31.4256C45.7458 31.7388 46.1511 32.1828 46.4237 32.7724C47.424 34.8671 46.7514 36.5989 45.6202 37.8166C43.2878 36.9377 40.1226 38.4224 40.3399 39.9847C40.4983 41.2375 43.7095 40.626 45.8596 38.653C46.4049 38.9902 46.8397 39.589 47.0625 40.5489C48.0571 44.93 44.3724 46.6339 44.0057 47.0245C43.6391 47.415 44.7776 47.9199 45.3083 47.3377C45.9089 46.7022 49.6472 43.3843 47.49 39.4251C47.1787 38.8429 46.7808 38.4375 46.2815 38.1317C47.4054 36.8753 48.0393 35.1509 47.3946 33.0285C47.0575 31.8899 46.4238 31.0885 45.6095 30.6021ZM41.3606 39.8705C41.2114 39.2976 43.332 38.0118 45.0435 38.3674C43.494 39.7049 41.4803 40.2888 41.3606 39.8705Z" fill="#60C5CC"/>
<path d="M44.3696 29.3547C44.3161 30.1266 44.5942 32.6396 45.1634 32.892C45.6093 33.1279 47.6819 32.0115 47.7262 31.4017C47.7704 30.7919 45.6076 29.119 44.961 28.8813C44.4912 28.7302 44.3825 28.791 44.3696 29.3547Z" fill="#51AADC"/>
<path d="M45.1372 30.6517C49.6492 28.0285 54.8762 22.4226 50.7996 13.8574C46.6917 5.33828 39.166 2.2409 32.5813 5.98044C25.2044 10.1916 24.8171 17.8427 28.9472 24.7941C33.0238 31.6754 41.4174 32.8034 45.1372 30.6517Z" fill="#4EB7E5"/>
<path opacity="0.18" d="M50.8004 13.8578C47.5952 7.13124 42.2268 3.78343 36.8748 4.52189C39.544 9.90716 40.9715 15.9298 40.1053 21.9081C39.6261 25.2869 38.4394 28.3193 36.7001 30.9758C39.9426 32.0022 43.1887 31.785 45.138 30.6521C49.65 28.0289 54.877 22.423 50.8004 13.8578Z" fill="#4EB7E5"/>
<path opacity="0.7" d="M29.4066 13.5209C29.9133 12.1816 30.643 10.9602 31.5568 9.86402C31.9788 9.34267 31.1497 8.77887 30.6818 9.2689C29.6979 10.4185 28.9056 11.732 28.4136 13.1487C28.1759 13.7953 29.1689 14.1676 29.4066 13.5209Z" fill="#E4E6ED"/>
<path opacity="0.7" d="M32.7252 8.83977C32.8192 8.7016 32.9132 8.56343 32.9832 8.51001C33.1232 8.40316 33.2245 8.30368 33.3332 8.24289C33.5893 8.11394 33.6925 7.81365 33.5636 7.55756C33.4346 7.30147 33.1269 7.15959 32.8782 7.32723C32.4821 7.56302 32.1007 7.8762 31.8575 8.28334C31.7009 8.51362 31.7598 8.82313 31.9975 9.01843C32.2517 9.0903 32.6073 9.06268 32.7252 8.83977Z" fill="#E4E6ED"/>
<path d="M71.7736 50.5174C71.5673 49.4341 71.094 46.3169 68.9993 45.6332C66.866 44.957 62.5619 51.8305 60.0785 50.5794C57.6412 49.3596 57.8 42.193 58.0893 41.8172C58.3712 41.4027 58.7323 41.6145 58.806 42.0014C58.8796 42.3883 58.1828 49.2565 60.3402 49.848C62.4975 50.4395 66.282 44.6272 68.782 44.9129C71.3281 45.2299 72.2951 49.2554 72.4645 50.1453C72.599 50.6409 71.8399 50.8656 71.7736 50.5174Z" fill="#6071B5"/>
<path d="M57.9382 38.9193C57.5144 39.6415 56.5489 42.1506 56.9302 42.6794C57.2508 43.0995 59.7692 43.0609 60.1064 42.5156C60.4436 41.9703 59.178 39.3247 58.712 38.7719C58.3601 38.3979 58.244 38.42 57.9382 38.9193Z" fill="#FDC543"/>
<path d="M58.0472 40.5423C63.611 40.2847 71.2901 35.9759 71.3293 25.8653C71.3777 17.2763 66.8534 9.51805 57.6786 10.1826C47.9474 10.8729 44.6252 18.4815 45.4962 27.0558C46.3358 34.8341 53.4727 40.7318 58.0472 40.5423Z" fill="#FDC543"/>
<path opacity="0.28" d="M63.3636 10.9843C63.5957 11.782 63.743 12.5558 63.859 13.3756C64.406 17.7217 63.4938 21.9848 61.8115 25.9936C59.6243 31.1409 56.2158 35.5586 51.3224 37.6531C53.5681 39.5508 56.0607 40.6398 58.0855 40.5349C63.6493 40.2773 71.3284 35.9685 71.3676 25.8578C71.3588 19.2844 68.7117 13.1732 63.3636 10.9843Z" fill="#FDC543"/>
<path d="M57.3164 13.4383L57.8439 14.2207L58.9514 14.3017L58.1918 14.9892L58.459 15.8906L57.452 15.5223L56.531 16.0161L56.6494 15.0896L55.8368 14.5044L56.8947 14.2824L57.3164 13.4383Z" fill="white"/>
<path d="M57.8426 21.52L58.8004 22.9635L60.7137 23.0686L59.4237 24.3011L59.8559 25.9064L58.0858 25.256L56.4446 26.1284L56.6651 24.4807L55.1965 23.4278L57.08 23.0755L57.8426 21.52Z" fill="white"/>
<path d="M58.8853 37.5312L59.5876 38.2512L61.0493 38.2837L60.0491 38.9358L60.3427 39.7844L59.0111 39.4627L57.7324 39.9543L57.9134 39.0748L56.8372 38.5578L58.2824 38.3362L58.8853 37.5312Z" fill="white"/>
<path d="M64.1575 36.1641L64.2235 36.7212L64.7443 36.9426L64.1973 37.2334L64.115 37.8002L63.7029 37.4187L63.1163 37.559L63.4095 37.0294L63.1688 36.5347L63.739 36.5996L64.1575 36.1641Z" fill="white"/>
<path d="M53.1993 37.5951L53.7284 37.9435L54.2541 37.7816L54.1092 38.3015L54.4966 38.7612L53.8983 38.7236L53.6002 39.1769L53.3858 38.6293L52.809 38.4627L53.2654 38.1523L53.1993 37.5951Z" fill="white"/>
<path d="M58.5099 31.7622L59.2369 32.8634L60.7019 32.9467L59.7216 33.9038L60.04 35.1336L58.6968 34.634L57.4297 35.3035L57.5859 34.0428L56.4898 33.2208L57.9317 32.9483L58.5099 31.7622Z" fill="white"/>
<path d="M68.1222 20.1874L68.6927 21.6306L69.7458 21.7917L69.0507 23.011L69.3345 24.6259L68.3653 23.9233L67.4954 24.7456L67.5675 23.1075L66.7202 21.9887L67.7435 21.6924L68.1222 20.1874Z" fill="white"/>
<path d="M48.8419 21.5655L49.4124 23.0086L50.4655 23.1698L49.7704 24.389L50.0542 26.004L49.0851 25.3014L48.1855 26.1256L48.2576 24.4875L47.4399 23.3667L48.4632 23.0704L48.8419 21.5655Z" fill="white"/>
<path d="M58.2895 10.8343L58.779 11.0321L59.8782 10.9861L59.0889 11.2161L59.3114 11.4314L58.3259 11.3934L57.3833 11.5569L57.5464 11.3165L56.7636 11.1888L57.8298 11.0939L58.2895 10.8343Z" fill="white"/>
<path d="M53.7864 11.9706L53.6844 12.6918L54.1508 12.9933L53.5164 13.3153L53.2661 14.0462L52.9348 13.5318L52.2888 13.6759L52.7534 13.0332L52.623 12.4036L53.1949 12.494L53.7864 11.9706Z" fill="white"/>
<path d="M62.3722 13.1741L63.1599 13.3781L63.613 13.0168L63.8604 13.6132L64.6284 13.9716L63.9841 14.1411L64.0221 14.7257L63.3645 14.2325L62.6196 14.23L62.8568 13.7551L62.3722 13.1741Z" fill="white"/>
<path d="M52.7843 17.0255L53.0549 18.4371L54.2712 18.8173L53.1376 19.7078L53.0243 21.17L52.0748 20.313L50.7978 20.83L51.333 19.4425L50.6324 18.2885L51.9408 18.2544L52.7843 17.0255Z" fill="white"/>
<path d="M52.3633 27.0323L53.3292 28.1435L54.6327 28.0331L54.0563 29.2446L54.7388 30.5784L53.4336 30.204L52.5423 31.1553L52.2997 29.7163L51.0586 28.9548L52.2466 28.4436L52.3633 27.0323Z" fill="white"/>
<path d="M47.5836 16.1678L47.2527 17.491L47.4785 17.757L46.9135 18.6871L46.4689 20.0942L46.4523 19.3807L45.9547 19.9745L46.49 18.587L46.6314 17.5569L47.0088 17.4047L47.5836 16.1678Z" fill="white"/>
<path d="M67.0747 15.5339L68.0637 16.5415L68.4527 16.5672L68.9605 17.504L69.9594 18.664L69.277 18.2491L69.4997 18.9237L68.5881 17.7324L67.7062 16.9986L67.8347 16.684L67.0747 15.5339Z" fill="white"/>
<path d="M61.6526 16.4483L62.6482 17.5575L63.9501 17.4217L63.4049 18.6567L64.1155 19.9632L62.8119 19.6141L61.9519 20.5889L61.6499 19.1538L60.4105 18.4178L61.5656 17.8577L61.6526 16.4483Z" fill="white"/>
<path d="M63.5474 26.3299L63.7274 27.7219L64.919 28.1803L63.7211 28.9984L63.5188 30.4663L62.6271 29.58L61.3154 30.0227L61.9413 28.6548L61.3279 27.4697L62.6414 27.5118L63.5474 26.3299Z" fill="white"/>
<path d="M65.8886 32.0986L66.0125 33.0859L66.8679 33.4131L66.0127 34.0047L65.8729 35.0602L65.2053 34.4146L64.2727 34.7305L64.7157 33.7574L64.3035 32.9164L65.228 32.9328L65.8886 32.0986Z" fill="white"/>
<path d="M51.4736 33.037L52.2665 33.7766L53.1794 33.6151L52.8797 34.5023L53.4748 35.4079L52.5107 35.241L51.9621 35.9658L51.657 34.9392L50.7341 34.4889L51.5101 34.0555L51.4736 33.037Z" fill="white"/>
<path d="M70.1721 26.0517L70.1708 27.4045L70.9092 27.7648L70.0145 28.6653L69.7512 30.1116L69.2204 29.2784L68.3323 29.8212L68.8675 28.4336L68.5854 27.3035L69.4457 27.2475L70.1721 26.0517Z" fill="white"/>
<path d="M48.0632 27.5172L48.8249 28.6927L49.6884 28.6875L49.4349 29.827L50.0302 31.1919L49.1055 30.7162L48.5932 31.5407L48.2913 30.1056L47.4028 29.2701L48.1212 28.8661L48.0632 27.5172Z" fill="white"/>
<path opacity="0.7" d="M48.8452 24.0124C48.8251 22.0116 49.26 20.0846 50.1646 18.3086C50.6363 17.417 49.3468 16.54 48.8751 17.4316C47.8138 19.4379 47.2683 21.6265 47.3014 23.9055C47.2847 24.8708 48.8359 25.0165 48.8452 24.0124Z" fill="#FEEDC3"/>
<path opacity="0.7" d="M51.3939 16.5511C51.5045 16.2895 51.5597 16.1587 51.7477 15.8824C51.873 15.6981 52.0443 15.5452 52.293 15.3776C52.6431 15.1105 52.6247 14.5928 52.365 14.2814C52.0591 13.9387 51.6188 13.9424 51.2688 14.2095C50.67 14.6443 50.1928 15.2964 49.9698 16.0204C49.5903 16.9747 51.053 17.498 51.3939 16.5511Z" fill="#FEEDC3"/>
<path d="M340.475 48.8424C340.272 49.8622 339.029 53.0339 338.214 53.231C337.559 53.3781 335.269 51.255 335.426 50.4814C335.602 49.6728 338.979 48.1804 339.878 48.073C340.548 47.9791 340.632 48.0688 340.475 48.8424Z" fill="#E9426B"/>
<path d="M338.109 50.2093C333.457 45.1098 332.58 35.5211 341.398 26.0882C350.181 16.637 359.067 17.2199 365.525 23.5527C372.47 30.3711 369.287 42.1303 361.137 49.5263C353.065 56.7824 341.959 54.4288 338.109 50.2093Z" fill="#EE3A85"/>
<path opacity="0.29" d="M353.234 43.7117C360.162 41.3976 365.331 35.9778 369.026 29.772C370.461 36.2287 367.17 44.0495 361.158 49.4718C353.098 56.7833 341.955 54.4107 338.104 50.1899C336.196 48.0887 334.918 45.239 334.711 41.9668C340.171 45.1033 346.894 45.842 353.234 43.7117Z" fill="#E9426B"/>
<path opacity="0.7" d="M363.21 26.4734C361.054 24.4484 358.435 23.2745 355.497 22.9365C354.495 22.8115 354.881 21.2787 355.848 21.3852C359.067 21.7819 361.942 23.1392 364.321 25.3293C365.035 25.9863 363.939 27.1844 363.21 26.4734Z" fill="#F8C3D0"/>
<path opacity="0.7" d="M353.428 22.9642C352.634 23.0384 351.852 23.2544 351.081 23.612C350.688 23.7642 350.226 23.4729 350.12 23.0996C349.998 22.6729 350.262 22.2708 350.655 22.1186C351.533 21.7275 352.456 21.4964 353.391 21.407C354.399 21.2658 354.416 22.8581 353.428 22.9642Z" fill="#F8C3D0"/>
<path d="M331.39 30.6021C331.454 30.895 331.558 31.1953 331.714 31.4256C331.254 31.7388 330.848 32.1828 330.576 32.7724C329.576 34.8671 330.248 36.5989 331.379 37.8166C333.712 36.9377 336.877 38.4224 336.66 39.9847C336.501 41.2375 333.29 40.626 331.14 38.653C330.595 38.9902 330.16 39.589 329.937 40.5489C328.942 44.93 332.627 46.6339 332.994 47.0245C333.36 47.415 332.222 47.9199 331.691 47.3377C331.091 46.7022 327.352 43.3843 329.509 39.4251C329.821 38.8429 330.219 38.4375 330.718 38.1317C329.594 36.8753 328.96 35.1509 329.605 33.0285C329.942 31.8899 330.576 31.0885 331.39 30.6021ZM335.639 39.8705C335.788 39.2976 333.668 38.0118 331.956 38.3674C333.506 39.7049 335.519 40.2888 335.639 39.8705Z" fill="#60C5CC"/>
<path d="M332.63 29.3547C332.683 30.1266 332.405 32.6396 331.836 32.892C331.39 33.1279 329.318 32.0115 329.273 31.4017C329.229 30.7919 331.392 29.119 332.039 28.8813C332.508 28.7302 332.617 28.791 332.63 29.3547Z" fill="#51AADC"/>
<path d="M331.862 30.6517C327.35 28.0285 322.123 22.4226 326.2 13.8574C330.308 5.33828 337.834 2.2409 344.418 5.98044C351.795 10.1916 352.182 17.8427 348.052 24.7941C343.976 31.6754 335.582 32.8034 331.862 30.6517Z" fill="#4EB7E5"/>
<path opacity="0.18" d="M326.199 13.8578C329.404 7.13124 334.773 3.78343 340.125 4.52189C337.455 9.90716 336.028 15.9298 336.894 21.9081C337.373 25.2869 338.56 28.3193 340.299 30.9758C337.057 32.0022 333.811 31.785 331.862 30.6521C327.35 28.0289 322.123 22.423 326.199 13.8578Z" fill="#4EB7E5"/>
<path opacity="0.7" d="M347.593 13.5209C347.086 12.1816 346.357 10.9602 345.443 9.86402C345.021 9.34267 345.85 8.77887 346.318 9.2689C347.302 10.4185 348.094 11.732 348.586 13.1487C348.824 13.7953 347.831 14.1676 347.593 13.5209Z" fill="#E4E6ED"/>
<path opacity="0.7" d="M344.274 8.83977C344.18 8.7016 344.086 8.56343 344.016 8.51001C343.876 8.40316 343.775 8.30368 343.666 8.24289C343.41 8.11394 343.307 7.81365 343.436 7.55756C343.565 7.30147 343.873 7.15959 344.121 7.32723C344.517 7.56302 344.899 7.8762 345.142 8.28334C345.299 8.51362 345.24 8.82313 345.002 9.01843C344.748 9.0903 344.392 9.06268 344.274 8.83977Z" fill="#E4E6ED"/>
<path d="M305.226 50.5174C305.433 49.4341 305.906 46.3169 308.001 45.6332C310.134 44.957 314.438 51.8305 316.921 50.5794C319.359 49.3596 319.2 42.193 318.911 41.8172C318.629 41.4027 318.268 41.6145 318.194 42.0014C318.12 42.3883 318.817 49.2565 316.66 49.848C314.502 50.4395 310.718 44.6272 308.218 44.9129C305.672 45.2299 304.705 49.2554 304.535 50.1453C304.401 50.6409 305.16 50.8656 305.226 50.5174Z" fill="#6071B5"/>
<path d="M319.062 38.9193C319.486 39.6415 320.451 42.1506 320.07 42.6794C319.749 43.0995 317.231 43.0609 316.894 42.5156C316.556 41.9703 317.822 39.3247 318.288 38.7719C318.64 38.3979 318.756 38.42 319.062 38.9193Z" fill="#FDC543"/>
<path d="M318.953 40.5423C313.389 40.2847 305.71 35.9759 305.671 25.8653C305.622 17.2763 310.147 9.51805 319.321 10.1826C329.053 10.8729 332.375 18.4815 331.504 27.0558C330.664 34.8341 323.527 40.7318 318.953 40.5423Z" fill="#FDC543"/>
<path opacity="0.28" d="M313.636 10.9843C313.404 11.782 313.257 12.5558 313.141 13.3756C312.594 17.7217 313.506 21.9848 315.189 25.9936C317.376 31.1409 320.784 35.5586 325.678 37.6531C323.432 39.5508 320.939 40.6398 318.915 40.5349C313.351 40.2773 305.672 35.9685 305.632 25.8578C305.641 19.2844 308.288 13.1732 313.636 10.9843Z" fill="#FDC543"/>
<path d="M319.684 13.4383L319.156 14.2207L318.049 14.3017L318.808 14.9892L318.541 15.8906L319.548 15.5223L320.469 16.0161L320.351 15.0896L321.163 14.5044L320.105 14.2824L319.684 13.4383Z" fill="white"/>
<path d="M319.157 21.52L318.2 22.9635L316.286 23.0686L317.576 24.3011L317.144 25.9064L318.914 25.256L320.555 26.1284L320.335 24.4807L321.804 23.4278L319.92 23.0755L319.157 21.52Z" fill="white"/>
<path d="M318.115 37.5312L317.412 38.2512L315.951 38.2837L316.951 38.9358L316.657 39.7844L317.989 39.4627L319.268 39.9543L319.087 39.0748L320.163 38.5578L318.718 38.3362L318.115 37.5312Z" fill="white"/>
<path d="M312.843 36.1641L312.776 36.7212L312.256 36.9426L312.803 37.2334L312.885 37.8002L313.297 37.4187L313.884 37.559L313.591 37.0294L313.831 36.5347L313.261 36.5996L312.843 36.1641Z" fill="white"/>
<path d="M323.801 37.5951L323.272 37.9435L322.746 37.7816L322.891 38.3015L322.503 38.7612L323.102 38.7236L323.4 39.1769L323.614 38.6293L324.191 38.4627L323.735 38.1523L323.801 37.5951Z" fill="white"/>
<path d="M318.49 31.7622L317.763 32.8634L316.298 32.9467L317.278 33.9038L316.96 35.1336L318.303 34.634L319.57 35.3035L319.414 34.0428L320.51 33.2208L319.068 32.9483L318.49 31.7622Z" fill="white"/>
<path d="M308.878 20.1874L308.307 21.6306L307.254 21.7917L307.949 23.011L307.665 24.6259L308.635 23.9233L309.505 24.7456L309.432 23.1075L310.28 21.9887L309.256 21.6924L308.878 20.1874Z" fill="white"/>
<path d="M328.158 21.5655L327.588 23.0086L326.534 23.1698L327.23 24.389L326.946 26.004L327.915 25.3014L328.815 26.1256L328.742 24.4875L329.56 23.3667L328.537 23.0704L328.158 21.5655Z" fill="white"/>
<path d="M318.71 10.8343L318.221 11.0321L317.122 10.9861L317.911 11.2161L317.689 11.4314L318.674 11.3934L319.617 11.5569L319.454 11.3165L320.236 11.1888L319.17 11.0939L318.71 10.8343Z" fill="white"/>
<path d="M323.214 11.9706L323.316 12.6918L322.849 12.9933L323.484 13.3153L323.734 14.0462L324.065 13.5318L324.711 13.6759L324.247 13.0332L324.377 12.4036L323.805 12.494L323.214 11.9706Z" fill="white"/>
<path d="M314.628 13.1741L313.84 13.3781L313.387 13.0168L313.14 13.6132L312.372 13.9716L313.016 14.1411L312.978 14.7257L313.636 14.2325L314.38 14.23L314.143 13.7551L314.628 13.1741Z" fill="white"/>
<path d="M324.216 17.0255L323.945 18.4371L322.729 18.8173L323.862 19.7078L323.976 21.17L324.925 20.313L326.202 20.83L325.667 19.4425L326.368 18.2885L325.059 18.2544L324.216 17.0255Z" fill="white"/>
<path d="M324.637 27.0323L323.671 28.1435L322.367 28.0331L322.944 29.2446L322.261 30.5784L323.566 30.204L324.458 31.1553L324.7 29.7163L325.941 28.9548L324.753 28.4436L324.637 27.0323Z" fill="white"/>
<path d="M329.416 16.1678L329.747 17.491L329.521 17.757L330.086 18.6871L330.531 20.0942L330.548 19.3807L331.045 19.9745L330.51 18.587L330.369 17.5569L329.991 17.4047L329.416 16.1678Z" fill="white"/>
<path d="M309.925 15.5339L308.936 16.5415L308.547 16.5672L308.04 17.504L307.041 18.664L307.723 18.2491L307.5 18.9237L308.412 17.7324L309.294 16.9986L309.165 16.684L309.925 15.5339Z" fill="white"/>
<path d="M315.347 16.4483L314.351 17.5575L313.049 17.4217L313.595 18.6567L312.884 19.9632L314.188 19.6141L315.048 20.5889L315.35 19.1538L316.589 18.4178L315.434 17.8577L315.347 16.4483Z" fill="white"/>
<path d="M313.453 26.3299L313.273 27.7219L312.081 28.1803L313.279 28.9984L313.481 30.4663L314.373 29.58L315.685 30.0227L315.059 28.6548L315.672 27.4697L314.359 27.5118L313.453 26.3299Z" fill="white"/>
<path d="M311.111 32.0986L310.988 33.0859L310.132 33.4131L310.987 34.0047L311.127 35.0602L311.795 34.4146L312.727 34.7305L312.284 33.7574L312.696 32.9164L311.772 32.9328L311.111 32.0986Z" fill="white"/>
<path d="M325.526 33.037L324.734 33.7766L323.821 33.6151L324.12 34.5023L323.525 35.4079L324.489 35.241L325.038 35.9658L325.343 34.9392L326.266 34.4889L325.49 34.0555L325.526 33.037Z" fill="white"/>
<path d="M306.828 26.0517L306.829 27.4045L306.091 27.7648L306.985 28.6653L307.249 30.1116L307.78 29.2784L308.668 29.8212L308.132 28.4336L308.415 27.3035L307.554 27.2475L306.828 26.0517Z" fill="white"/>
<path d="M328.937 27.5172L328.175 28.6927L327.312 28.6875L327.565 29.827L326.97 31.1919L327.894 30.7162L328.407 31.5407L328.709 30.1056L329.597 29.2701L328.879 28.8661L328.937 27.5172Z" fill="white"/>
<path opacity="0.7" d="M328.155 24.0124C328.175 22.0116 327.74 20.0846 326.835 18.3086C326.364 17.417 327.653 16.54 328.125 17.4316C329.186 19.4379 329.732 21.6265 329.699 23.9055C329.715 24.8708 328.164 25.0165 328.155 24.0124Z" fill="#FEEDC3"/>
<path opacity="0.7" d="M325.606 16.5511C325.496 16.2895 325.44 16.1587 325.252 15.8824C325.127 15.6981 324.956 15.5452 324.707 15.3776C324.357 15.1105 324.375 14.5928 324.635 14.2814C324.941 13.9387 325.381 13.9424 325.731 14.2095C326.33 14.6443 326.807 15.2964 327.03 16.0204C327.41 16.9747 325.947 17.498 325.606 16.5511Z" fill="#FEEDC3"/>
</svg>
