<svg width="144" height="48" viewBox="0 0 144 48" fill="none" xmlns="http://www.w3.org/2000/svg">
<path d="M0 12C0 5.37258 5.37258 0 12 0H132C138.627 0 144 5.37258 144 12V36C144 42.6274 138.627 48 132 48H12C5.37258 48 0 42.6274 0 36V12Z" fill="#FFCAF3"/>
<g clip-path="url(#clip0)">
<path d="M129.726 20.7018L126.853 20.4353L125.711 17.7849C125.632 17.5993 125.368 17.5993 125.288 17.7849L124.147 20.4352L121.274 20.7018C121.073 20.7204 120.991 20.9707 121.143 21.104L123.311 23.0085L122.677 25.8236C122.632 26.0207 122.845 26.1754 123.019 26.0722L125.5 24.5989L127.981 26.0722C128.155 26.1754 128.368 26.0207 128.323 25.8236L127.689 23.0085L129.857 21.104C130.009 20.9707 129.927 20.7204 129.726 20.7018Z" fill="white"/>
<path d="M122.563 17.6937C122.709 17.8972 123.123 18.771 123.359 19.2802C123.396 19.3602 123.296 19.4325 123.232 19.3719C122.824 18.9862 122.126 18.3169 121.98 18.1134C121.864 17.9525 121.9 17.728 122.061 17.6121C122.222 17.4962 122.447 17.5327 122.563 17.6937Z" fill="#FFF082"/>
<path d="M128.437 17.6937C128.291 17.8972 127.877 18.771 127.641 19.2802C127.604 19.3602 127.704 19.4325 127.768 19.3719C128.176 18.9862 128.874 18.3169 129.02 18.1134C129.136 17.9525 129.099 17.728 128.938 17.6121C128.778 17.4962 128.553 17.5327 128.437 17.6937Z" fill="#FFF082"/>
<path d="M130.752 23.6601C130.514 23.5824 129.555 23.454 128.999 23.3835C128.911 23.3724 128.873 23.4901 128.95 23.5327C129.441 23.8042 130.291 24.2653 130.529 24.3431C130.718 24.4046 130.92 24.3016 130.982 24.1129C131.044 23.9243 130.94 23.7216 130.752 23.6601Z" fill="#FFF082"/>
<path d="M120.248 23.6601C120.486 23.5824 121.444 23.454 122.001 23.3835C122.089 23.3724 122.127 23.4901 122.05 23.5327C121.559 23.8042 120.709 24.2653 120.471 24.3431C120.282 24.4046 120.079 24.3016 120.018 24.1129C119.956 23.9243 120.059 23.7216 120.248 23.6601Z" fill="#FFF082"/>
<path d="M125.152 27.7137C125.152 27.463 125.327 26.5124 125.433 25.961C125.449 25.8743 125.573 25.8743 125.59 25.961C125.695 26.5124 125.87 27.463 125.87 27.7137C125.87 27.9121 125.709 28.0729 125.511 28.0729C125.313 28.0729 125.152 27.9121 125.152 27.7137Z" fill="#FFF082"/>
</g>
<g clip-path="url(#clip1)">
<path d="M72.8421 39.3933L70.2299 39.151L69.1923 36.7416C69.1196 36.5729 68.8804 36.5729 68.8078 36.7416L67.7702 39.151L65.1581 39.3933C64.9751 39.4102 64.9012 39.6377 65.0392 39.759L67.0101 41.4903L66.4333 44.0495C66.3929 44.2287 66.5865 44.3693 66.7444 44.2755L69.0001 42.9361L71.2557 44.2755C71.4137 44.3693 71.6072 44.2287 71.5668 44.0495L70.99 41.4903L72.9609 39.759C73.0989 39.6377 73.0249 39.4102 72.8421 39.3933Z" fill="white"/>
<path d="M66.3298 36.6587C66.463 36.8436 66.8389 37.638 67.0537 38.1009C67.0875 38.1737 66.9962 38.2394 66.9379 38.1843C66.5671 37.8336 65.933 37.2252 65.7998 37.0402C65.6945 36.8939 65.7277 36.6898 65.8741 36.5844C66.0204 36.4791 66.2245 36.5123 66.3298 36.6587Z" fill="#FFF082"/>
<path d="M71.6702 36.6587C71.537 36.8436 71.1611 37.638 70.9463 38.1009C70.9125 38.1737 71.0038 38.2394 71.0621 38.1843C71.4329 37.8336 72.067 37.2252 72.2002 37.0402C72.3055 36.8939 72.2723 36.6898 72.1259 36.5844C71.9796 36.4791 71.7755 36.5123 71.6702 36.6587Z" fill="#FFF082"/>
<path d="M73.7747 42.0826C73.558 42.012 72.687 41.8952 72.1807 41.8312C72.1011 41.8211 72.0663 41.9281 72.1365 41.9669C72.5832 42.2136 73.3555 42.6329 73.5722 42.7035C73.7437 42.7594 73.928 42.6658 73.9839 42.4943C74.0398 42.3229 73.9462 42.1386 73.7747 42.0826Z" fill="#FFF082"/>
<path d="M64.2254 42.0826C64.442 42.012 65.313 41.8952 65.8194 41.8312C65.8989 41.8211 65.9338 41.9281 65.8636 41.9669C65.4169 42.2136 64.6445 42.6329 64.4279 42.7035C64.2564 42.7594 64.0721 42.6658 64.0162 42.4943C63.9603 42.3229 64.0539 42.1386 64.2254 42.0826Z" fill="#FFF082"/>
</g>
<g clip-path="url(#clip2)">
<path d="M29.0738 34.7763L26.9841 34.5825L26.154 32.6549C26.0959 32.52 25.9045 32.52 25.8464 32.6549L25.0163 34.5825L22.9266 34.7763C22.7803 34.7899 22.7212 34.9719 22.8316 35.0688L24.4083 36.4539L23.9468 38.5013C23.9145 38.6446 24.0694 38.7571 24.1957 38.6821L26.0002 37.6106L27.8048 38.6821C27.9311 38.7571 28.0859 38.6446 28.0536 38.5013L27.5922 36.4539L29.1689 35.0688C29.2793 34.9719 29.2201 34.7899 29.0738 34.7763Z" fill="white"/>
<path d="M23.8639 32.5887C23.9704 32.7366 24.2711 33.3721 24.443 33.7424C24.47 33.8007 24.397 33.8533 24.3503 33.8091C24.0537 33.5286 23.5464 33.0419 23.4399 32.8939C23.3556 32.7768 23.3822 32.6136 23.4992 32.5293C23.6163 32.445 23.7796 32.4716 23.8639 32.5887Z" fill="#FFF082"/>
<path d="M28.1362 32.5887C28.0297 32.7366 27.729 33.3721 27.5571 33.7424C27.5301 33.8007 27.6031 33.8533 27.6498 33.8091C27.9464 33.5286 28.4537 33.0419 28.5602 32.8939C28.6445 32.7768 28.618 32.6136 28.5009 32.5293C28.3838 32.445 28.2205 32.4716 28.1362 32.5887Z" fill="#FFF082"/>
<path d="M29.8199 36.9278C29.6465 36.8713 28.9497 36.7779 28.5447 36.7267C28.481 36.7186 28.4531 36.8042 28.5093 36.8352C28.8667 37.0326 29.4845 37.368 29.6579 37.4245C29.795 37.4693 29.9425 37.3944 29.9872 37.2572C30.0319 37.12 29.957 36.9726 29.8199 36.9278Z" fill="#FFF082"/>
<path d="M22.1803 36.9278C22.3536 36.8713 23.0504 36.7779 23.4555 36.7267C23.5192 36.7186 23.5471 36.8042 23.4909 36.8352C23.1335 37.0326 22.5156 37.368 22.3423 37.4245C22.2051 37.4693 22.0577 37.3944 22.0129 37.2572C21.9682 37.12 22.0431 36.9726 22.1803 36.9278Z" fill="#FFF082"/>
<path d="M25.7466 39.8759C25.7466 39.6936 25.8738 39.0022 25.9507 38.6012C25.9628 38.5382 26.0528 38.5382 26.0649 38.6012C26.1418 39.0022 26.269 39.6936 26.269 39.8759C26.269 40.0202 26.1521 40.1372 26.0078 40.1372C25.8635 40.1372 25.7466 40.0202 25.7466 39.8759Z" fill="#FFF082"/>
</g>
<g clip-path="url(#clip3)">
<path d="M44.1472 8.24407L39.9678 7.85644L38.3076 4.00134C38.1913 3.7314 37.8086 3.7314 37.6924 4.00134L36.0322 7.85641L31.8528 8.24407C31.5601 8.27119 31.4419 8.6352 31.6627 8.82916L34.816 11.5994L33.8932 15.694C33.8286 15.9807 34.1382 16.2057 34.3909 16.0556L38 13.9126L41.6091 16.0556C41.8618 16.2057 42.1714 15.9807 42.1068 15.694L41.1839 11.5994L44.3373 8.82916C44.5581 8.6352 44.4398 8.27119 44.1472 8.24407Z" fill="white"/>
<path d="M33.7273 3.86873C33.9403 4.16467 34.5417 5.43561 34.8855 6.1763C34.9396 6.29273 34.7935 6.39792 34.7002 6.3097C34.1069 5.7487 33.0923 4.7752 32.8793 4.47923C32.7107 4.24507 32.7638 3.91857 32.998 3.74998C33.2322 3.58138 33.5587 3.63457 33.7273 3.86873Z" fill="#FFF082"/>
<path d="M42.2725 3.86873C42.0594 4.16467 41.458 5.43561 41.1142 6.1763C41.0601 6.29273 41.2062 6.39792 41.2995 6.3097C41.8929 5.7487 42.9074 4.77517 43.1205 4.47923C43.2891 4.24507 43.2359 3.91857 43.0017 3.74998C42.7676 3.58138 42.4411 3.63457 42.2725 3.86873Z" fill="#FFF082"/>
<path d="M45.6393 12.5471C45.2926 12.434 43.899 12.2472 43.0889 12.1447C42.9615 12.1286 42.9057 12.2998 43.0181 12.3618C43.7328 12.7567 44.9686 13.4274 45.3153 13.5405C45.5896 13.63 45.8845 13.4801 45.9739 13.2058C46.0634 12.9314 45.9136 12.6366 45.6393 12.5471Z" fill="#FFF082"/>
<path d="M30.3606 12.5471C30.7073 12.434 32.1009 12.2472 32.911 12.1447C33.0383 12.1286 33.0941 12.2998 32.9818 12.3618C32.267 12.7567 31.0313 13.4274 30.6846 13.5405C30.4103 13.63 30.1154 13.4801 30.0259 13.2058C29.9364 12.9314 30.0863 12.6366 30.3606 12.5471Z" fill="#FFF082"/>
<path d="M37.4937 18.4433C37.4937 18.0786 37.7482 16.6958 37.9019 15.8939C37.9261 15.7678 38.1061 15.7678 38.1303 15.8939C38.284 16.6958 38.5386 18.0786 38.5386 18.4433C38.5386 18.7318 38.3047 18.9657 38.0161 18.9657C37.7276 18.9658 37.4937 18.7318 37.4937 18.4433Z" fill="#FFF082"/>
</g>
<g clip-path="url(#clip4)">
<path d="M82.5369 21.5424L81.4921 21.4455L81.077 20.4818C81.048 20.4143 80.9523 20.4143 80.9232 20.4818L80.5082 21.4455L79.4633 21.5424C79.3902 21.5492 79.3606 21.6402 79.4158 21.6887L80.2041 22.3813L79.9734 23.4049C79.9573 23.4766 80.0347 23.5328 80.0979 23.4953L81.0001 22.9596L81.9024 23.4953C81.9656 23.5329 82.043 23.4766 82.0268 23.4049L81.7961 22.3813L82.5844 21.6887C82.6396 21.6402 82.6101 21.5492 82.5369 21.5424Z" fill="white"/>
<path d="M79.9319 20.4487C79.9852 20.5226 80.1355 20.8404 80.2215 21.0255C80.235 21.0547 80.1985 21.081 80.1752 21.0589C80.0268 20.9187 79.7732 20.6753 79.7199 20.6013C79.6778 20.5427 79.6911 20.4611 79.7496 20.419C79.8082 20.3768 79.8898 20.3901 79.9319 20.4487Z" fill="#FFF082"/>
<path d="M82.0679 20.4487C82.0146 20.5226 81.8643 20.8404 81.7783 21.0255C81.7648 21.0547 81.8013 21.081 81.8246 21.0589C81.973 20.9187 82.2266 20.6753 82.2799 20.6013C82.322 20.5427 82.3087 20.4611 82.2502 20.419C82.1916 20.3768 82.11 20.3901 82.0679 20.4487Z" fill="#FFF082"/>
<path d="M82.9097 22.6182C82.823 22.59 82.4746 22.5433 82.2721 22.5177C82.2403 22.5136 82.2263 22.5564 82.2544 22.5719C82.4331 22.6706 82.742 22.8383 82.8287 22.8666C82.8973 22.889 82.971 22.8515 82.9934 22.7829C83.0157 22.7143 82.9783 22.6406 82.9097 22.6182Z" fill="#FFF082"/>
<path d="M79.0901 22.6182C79.1768 22.59 79.5252 22.5433 79.7277 22.5177C79.7596 22.5136 79.7735 22.5564 79.7454 22.5719C79.5667 22.6706 79.2578 22.8383 79.1711 22.8666C79.1026 22.889 79.0288 22.8515 79.0065 22.7829C78.9841 22.7143 79.0216 22.6406 79.0901 22.6182Z" fill="#FFF082"/>
<path d="M80.8735 24.0923C80.8735 24.0012 80.9372 23.6555 80.9756 23.455C80.9816 23.4235 81.0267 23.4235 81.0327 23.455C81.0711 23.6555 81.1348 24.0012 81.1348 24.0923C81.1348 24.1645 81.0763 24.2229 81.0042 24.2229C80.932 24.2229 80.8735 24.1645 80.8735 24.0923Z" fill="#FFF082"/>
</g>
<g clip-path="url(#clip5)">
<path d="M122.305 39.1594L120.738 39.014L120.115 37.5684C120.072 37.4671 119.928 37.4671 119.885 37.5684L119.262 39.014L117.695 39.1594C117.585 39.1695 117.541 39.306 117.623 39.3788L118.806 40.4176L118.46 41.9531C118.436 42.0606 118.552 42.145 118.647 42.0887L120 41.2851L121.353 42.0887C121.448 42.145 121.564 42.0606 121.54 41.9531L121.194 40.4176L122.376 39.3788C122.459 39.306 122.415 39.1695 122.305 39.1594Z" fill="white"/>
<path d="M118.398 37.5187C118.478 37.6296 118.703 38.1062 118.832 38.384C118.853 38.4277 118.798 38.4671 118.763 38.434C118.54 38.2236 118.16 37.8586 118.08 37.7476C118.017 37.6598 118.037 37.5374 118.124 37.4741C118.212 37.4109 118.335 37.4309 118.398 37.5187Z" fill="#FFF082"/>
<path d="M121.602 37.5187C121.522 37.6296 121.297 38.1062 121.168 38.384C121.148 38.4277 121.202 38.4671 121.237 38.434C121.46 38.2236 121.84 37.8586 121.92 37.7476C121.984 37.6598 121.964 37.5374 121.876 37.4741C121.788 37.4109 121.666 37.4309 121.602 37.5187Z" fill="#FFF082"/>
<path d="M122.865 40.773C122.735 40.7306 122.212 40.6606 121.908 40.6222C121.86 40.6161 121.839 40.6803 121.882 40.7036C122.15 40.8516 122.613 41.1032 122.743 41.1456C122.846 41.1791 122.956 41.1229 122.99 41.0201C123.024 40.9172 122.967 40.8066 122.865 40.773Z" fill="#FFF082"/>
<path d="M117.135 40.773C117.265 40.7306 117.788 40.6606 118.092 40.6222C118.139 40.6161 118.16 40.6803 118.118 40.7036C117.85 40.8516 117.387 41.1032 117.257 41.1456C117.154 41.1791 117.043 41.1229 117.01 41.0201C116.976 40.9172 117.032 40.8066 117.135 40.773Z" fill="#FFF082"/>
<path d="M119.81 42.9841C119.81 42.8474 119.906 42.3288 119.963 42.0281C119.972 41.9808 120.04 41.9808 120.049 42.0281C120.106 42.3288 120.202 42.8474 120.202 42.9841C120.202 43.0923 120.114 43.18 120.006 43.18C119.898 43.18 119.81 43.0923 119.81 42.9841Z" fill="#FFF082"/>
</g>
<path d="M14.8001 37.1884C14.6282 37.3122 14.565 37.4579 14.6344 37.619C14.7039 37.78 14.8845 37.7823 15.1935 37.5955C15.4438 37.4761 15.5962 37.2804 15.6813 37.026C15.2897 37.0039 14.996 37.058 14.8001 37.1884ZM14.3001 34.2142C14.1 34.1401 13.8825 34.0964 13.678 34.1006C13.3408 34.0895 13.1559 34.1654 13.1296 34.3525C13.0968 34.5156 13.249 34.6028 13.5753 34.6683C13.708 34.6836 13.882 34.662 14.08 34.6339C14.2475 34.5884 14.439 34.5363 14.624 34.4603C14.624 34.4603 14.6479 34.4538 14.6719 34.4473C14.5371 34.3297 14.4153 34.26 14.3001 34.2142ZM16.3875 32.7215C16.4223 32.6606 16.4507 32.5758 16.4486 32.4735C16.4532 32.1124 16.2948 31.7186 15.9079 31.3354C15.5384 30.9217 15.2949 30.7823 15.1708 30.8932C15.0053 31.041 15.2486 31.4632 15.8767 32.1663C16.031 32.3557 16.2093 32.5386 16.3875 32.7215ZM14.9991 30.7342C15.0165 30.7038 15.0579 30.6668 15.0818 30.6603C15.2537 30.5365 15.4582 30.5323 15.6952 30.6478C15.9388 30.7872 16.1714 30.981 16.3756 31.2596C16.4995 31.4316 16.6059 31.634 16.6645 31.8494C16.9726 32.7938 16.3368 33.4806 15.699 34.0653C15.54 34.237 15.3746 34.3848 15.1787 34.5152C15.32 34.6567 15.4373 34.8047 15.5481 34.9288C15.7089 35.1421 15.8284 35.3924 15.9174 35.6252C16.0759 36.0191 16.1321 36.4151 16.1035 36.7827C16.5755 36.9114 16.8645 37.2184 17.0186 37.6906C17.1292 38.0974 17.0678 38.6282 16.7932 39.3197C16.5424 40.0048 16.2852 40.6659 16.004 41.3335C15.8732 41.7032 15.7598 42.0424 15.6399 42.3578C15.5439 42.6666 15.4958 42.9624 15.513 43.2148C15.5235 43.726 15.682 44.1198 15.9885 44.3964C16.3015 44.6968 16.482 44.6992 16.5192 44.4577C16.591 44.4382 16.6693 44.4426 16.7302 44.4775C16.7846 44.4884 16.8215 44.5298 16.8106 44.5841C16.8106 44.5841 16.8171 44.6081 16.8236 44.632C16.7081 44.869 16.5231 44.945 16.2622 44.836C16.0077 44.751 15.7751 44.5572 15.6013 44.296L15.5579 44.2307C15.471 44.1001 15.408 43.963 15.3624 43.7954C15.293 43.6344 15.2714 43.4604 15.2737 43.2798C15.2372 42.6729 15.3748 42.0443 15.6385 41.4071C15.9023 40.77 16.1421 40.1393 16.3405 39.5456C16.4604 39.2303 16.5325 38.9279 16.6045 38.6256C16.6526 38.3298 16.6463 38.0231 16.5987 37.7533C16.538 37.4356 16.3533 37.2288 16.0684 37.1263C15.9855 37.483 15.7742 37.7461 15.4412 37.9394C15.3106 38.0263 15.191 38.0589 15.0952 38.0849C14.993 38.087 14.8907 38.0891 14.8059 38.0607C14.6059 37.9866 14.4646 37.8451 14.4474 37.5927C14.4063 37.3469 14.463 37.1772 14.6284 37.0294C14.9005 36.8012 15.3074 36.6906 15.8077 36.7346C15.8428 36.3909 15.7931 36.0189 15.665 35.6424C15.5825 35.4335 15.4826 35.255 15.3457 35.0352C15.2523 34.8807 15.1415 34.7566 15.0132 34.663C14.9001 34.7194 14.7869 34.7759 14.6737 34.8324C14.2624 35.0213 13.8969 35.0949 13.5597 35.0838C13.0834 35.0333 12.8682 34.8091 12.9446 34.4285C13.0146 34.0239 13.2758 33.8501 13.6608 33.8482C13.9197 33.855 14.1915 33.9096 14.4221 34.0012C14.5982 34.0818 14.7808 34.1864 14.9635 34.2909C15.2073 34.1475 15.4206 33.9867 15.6209 33.7781C15.8516 33.5868 16.0738 33.2694 16.1653 33.0389C15.8198 32.6188 14.4374 31.221 14.9991 30.7342Z" fill="#5162FF"/>
<path fill-rule="evenodd" clip-rule="evenodd" d="M106.306 4.90564L116.901 13.1284L108.726 22.237L99.8331 15.3351L106.306 4.90564Z" fill="#88C0D9"/>
<path fill-rule="evenodd" clip-rule="evenodd" d="M106.302 4.65717L117.403 13.2727L116.097 16.1899L103.909 6.85382L106.302 4.65717Z" fill="#FFD36D"/>
<path fill-rule="evenodd" clip-rule="evenodd" d="M115.282 7.96563C115.066 8.11735 114.822 8.27251 114.584 8.35786C113.912 8.6224 113.1 8.65558 112.514 8.61874C112.737 8.52148 113.003 8.43269 113.307 8.32513C113.947 8.13382 114.672 7.95945 115.282 7.96563ZM116.428 8.3883C116.688 8.5906 116.855 8.81853 116.925 9.04485C117.052 9.38858 116.987 9.75633 116.792 10.0714C116.54 10.4905 116.212 10.6287 115.785 10.641C115.358 10.6534 114.825 10.4854 114.327 10.2714C113.568 9.95221 112.396 9.21464 111.989 8.94781C112.62 9.02035 113.803 9.07871 114.71 8.70158C115.078 8.5446 115.439 8.33315 115.75 8.05877C115.808 8.07914 115.866 8.0995 115.908 8.10797C116.055 8.1725 116.201 8.23704 116.308 8.32034C116.351 8.3288 116.382 8.3526 116.428 8.3883ZM111.708 3.86522C111.738 3.88902 111.769 3.91282 111.8 3.93662C112.048 4.15425 112.21 4.45197 112.241 4.69706C112.32 5.3234 112.117 6.34495 111.863 7.17931C111.669 7.83998 111.532 8.17547 111.462 8.39172C111.36 8.23863 111.246 8.10086 110.976 7.71984C110.62 7.19762 110.204 6.53077 110.021 6.06965C109.625 5.12362 110.106 3.99794 110.836 3.75377C111.195 3.63935 111.481 3.71395 111.708 3.86522ZM116.098 5.77401C116.19 5.84541 116.282 5.9168 116.335 6.00697C116.434 6.13283 116.454 6.29623 116.412 6.50905C116.37 6.72187 116.246 6.94499 116.083 7.18688C115.952 7.35554 115.805 7.51229 115.644 7.65715C114.908 7.52854 113.981 7.74227 113.169 7.99674C112.623 8.16242 112.165 8.37227 111.837 8.51049C111.988 8.28394 112.219 7.92283 112.573 7.43562C113.108 6.74566 113.816 5.99254 114.394 5.75364C114.801 5.57789 115.194 5.5145 115.519 5.57034C115.689 5.60421 115.832 5.6415 115.967 5.72137C116.052 5.73831 116.083 5.76211 116.098 5.77401ZM116.297 5.48612C116.266 5.46232 116.22 5.42662 116.178 5.41816C116.001 5.32982 115.812 5.25682 115.602 5.24172C115.195 5.19618 114.748 5.26643 114.287 5.44905C113.575 5.73235 112.875 6.53993 112.327 7.24522C112.244 7.35255 112.173 7.44454 112.089 7.55187C112.118 7.45141 112.151 7.37818 112.167 7.29305C112.419 6.43146 112.649 5.40647 112.556 4.6712C112.512 4.31718 112.3 3.95653 111.99 3.6913C111.68 3.42607 111.205 3.27846 110.701 3.45261C109.718 3.77024 109.222 5.10531 109.681 6.2232C109.882 6.72345 110.31 7.37497 110.67 7.92442C110.977 8.38371 111.209 8.68647 111.277 8.78854L112.12 9.44303C112.705 9.79819 113.558 10.3131 114.171 10.5678C114.711 10.7902 115.259 10.9701 115.771 10.9747C116.284 10.9793 116.769 10.766 117.076 10.2431C117.304 9.85473 117.385 9.40185 117.23 8.9373C117.119 8.60548 116.872 8.29082 116.465 8.02399C116.33 7.94412 116.18 7.85236 116.022 7.80315L116.007 7.79126C116.129 7.66516 116.236 7.52717 116.331 7.40451C116.534 7.14386 116.678 6.86284 116.741 6.59212C116.803 6.3214 116.769 6.04908 116.602 5.82115C116.537 5.74632 116.472 5.67149 116.396 5.61199C116.374 5.54562 116.343 5.52182 116.297 5.48612Z" fill="white"/>
<path fill-rule="evenodd" clip-rule="evenodd" d="M107.109 14.5702L107.373 14.7997L107.071 15.2528L106.764 15.0148L107.109 14.5702ZM110.671 10.013L107.557 14.4999L107.308 14.2823L110.671 10.013ZM111.243 8.73743L107.047 14.08L102.563 10.3295L102.376 10.602L106.845 14.3406L106.488 14.8006L101.863 11.3583L101.676 11.6309L106.286 15.0612L103.865 18.4648L104.126 18.6671L106.546 15.2635L106.868 15.5134L104.482 18.968L104.758 19.1822L107.144 15.7276L111.708 19.1223L111.926 18.8736L107.347 15.467L107.637 15.0292L112.072 18.7168L112.29 18.468L107.84 14.7686L111.737 9.14546L111.231 8.75276L111.243 8.73743Z" fill="white"/>
<defs>
<clipPath id="clip0">
<rect x="120" y="17.3086" width="11" height="11" fill="white"/>
</clipPath>
<clipPath id="clip1">
<rect x="64" y="36.3086" width="10" height="10" fill="white"/>
</clipPath>
<clipPath id="clip2">
<rect x="22" y="32.3086" width="8" height="8" fill="white"/>
</clipPath>
<clipPath id="clip3">
<rect x="30" y="3.30859" width="16" height="16" fill="white"/>
</clipPath>
<clipPath id="clip4">
<rect x="79" y="20.3086" width="4" height="4" fill="white"/>
</clipPath>
<clipPath id="clip5">
<rect x="117" y="37.3086" width="6" height="6" fill="white"/>
</clipPath>
</defs>
</svg>
