<svg width="1920" height="1303" viewBox="0 0 1920 1303" fill="none" xmlns="http://www.w3.org/2000/svg">
<path d="M935.632 677.216C1196.6 734.014 1900.15 310.669 1975.84 151.03C2294.25 467.596 2539.29 1218.44 1794.1 1434.86C862.617 1705.38 917.501 841 56.5009 1082.5C-800.044 1322.75 -1244.04 1458.07 -329.406 537.808C585.232 -382.456 609.419 606.218 935.632 677.216Z" fill="#DAEFF6"/>
<path d="M935.632 677.216C1196.6 734.014 1900.15 310.669 1975.84 151.03C2294.25 467.596 2539.29 1218.44 1794.1 1434.86C862.617 1705.38 917.501 841 56.5009 1082.5C-800.044 1322.75 -1244.04 1458.07 -329.406 537.808C585.232 -382.456 609.419 606.218 935.632 677.216Z" fill="url(#paint0_linear)"/>
<path d="M1157.29 1188.97C1156.75 1188.97 1152.3 1185.59 1151.59 1186.12C1150.87 1186.65 1151.05 1191.46 1151.05 1192.18C1150.87 1193.07 1146.95 1195.56 1147.13 1196.45C1147.31 1197.34 1152.12 1198.41 1152.65 1199.12C1153.19 1199.84 1154.08 1204.29 1154.97 1204.29C1156.4 1204.11 1158.53 1200.55 1159.07 1200.37C1159.78 1200.01 1164.05 1200.55 1164.77 1199.48C1165.48 1198.41 1162.1 1194.67 1161.92 1194.14C1161.74 1193.6 1163.52 1188.61 1163.16 1188.08C1162.63 1187.01 1158.18 1188.97 1157.29 1188.97Z" fill="white"/>
<path d="M666.542 1238.3C666.145 1238.3 662.833 1235.85 662.303 1236.24C661.773 1236.62 661.905 1240.11 661.905 1240.62C661.773 1241.27 658.858 1243.07 658.991 1243.72C659.123 1244.36 662.7 1245.13 663.098 1245.65C663.495 1246.17 664.157 1249.39 664.82 1249.39C665.88 1249.26 667.469 1246.68 667.867 1246.55C668.397 1246.29 671.576 1246.68 672.106 1245.91C672.636 1245.13 670.119 1242.43 669.986 1242.04C669.854 1241.65 671.179 1238.04 670.914 1237.66C670.516 1236.88 667.204 1238.3 666.542 1238.3Z" fill="white"/>
<path d="M1049.14 1262.05C1048.74 1262.05 1045.43 1259.6 1044.9 1259.98C1044.37 1260.37 1044.5 1263.85 1044.5 1264.37C1044.37 1265.01 1041.46 1266.82 1041.59 1267.46C1041.72 1268.11 1045.3 1268.88 1045.69 1269.4C1046.09 1269.91 1046.75 1273.14 1047.42 1273.14C1048.48 1273.01 1050.07 1270.43 1050.46 1270.3C1050.99 1270.04 1054.17 1270.43 1054.7 1269.65C1055.23 1268.88 1052.72 1266.17 1052.58 1265.79C1052.45 1265.4 1053.78 1261.79 1053.51 1261.4C1053.11 1260.63 1049.8 1262.05 1049.14 1262.05Z" fill="white"/>
<path d="M1553.19 1129.82C1552.79 1129.82 1549.48 1127.37 1548.95 1127.76C1548.42 1128.14 1548.55 1131.63 1548.55 1132.14C1548.42 1132.79 1545.5 1134.59 1545.64 1135.24C1545.77 1135.88 1549.34 1136.65 1549.74 1137.17C1550.14 1137.69 1550.8 1140.91 1551.46 1140.91C1552.52 1140.78 1554.11 1138.2 1554.51 1138.07C1555.04 1137.81 1558.22 1138.2 1558.75 1137.43C1559.28 1136.65 1556.76 1133.95 1556.63 1133.56C1556.5 1133.17 1557.82 1129.56 1557.56 1129.18C1557.16 1128.4 1553.85 1129.82 1553.19 1129.82Z" fill="white"/>
<path d="M863.557 1160.02C863.159 1160.02 859.847 1157.57 859.317 1157.96C858.787 1158.35 858.92 1161.83 858.92 1162.34C858.787 1162.99 855.873 1164.79 856.005 1165.44C856.138 1166.08 859.715 1166.86 860.112 1167.37C860.51 1167.89 861.172 1171.11 861.834 1171.11C862.894 1170.98 864.484 1168.4 864.881 1168.27C865.411 1168.02 868.591 1168.4 869.121 1167.63C869.651 1166.86 867.134 1164.15 867.001 1163.76C866.869 1163.37 868.193 1159.76 867.928 1159.38C867.531 1158.6 864.219 1160.02 863.557 1160.02Z" fill="white"/>
<path d="M1634.03 924.307C1633.63 924.307 1630.32 921.857 1629.79 922.244C1629.26 922.631 1629.39 926.112 1629.39 926.628C1629.26 927.272 1626.34 929.078 1626.48 929.722C1626.61 930.367 1630.18 931.141 1630.58 931.656C1630.98 932.172 1631.64 935.395 1632.3 935.395C1633.36 935.266 1634.95 932.688 1635.35 932.559C1635.88 932.301 1639.06 932.688 1639.59 931.914C1640.12 931.141 1637.6 928.433 1637.47 928.046C1637.34 927.659 1638.66 924.049 1638.4 923.662C1638 922.889 1634.69 924.307 1634.03 924.307Z" fill="white"/>
<path d="M1775.63 1102.85C1775.23 1102.85 1771.92 1100.4 1771.39 1100.79C1770.86 1101.18 1770.99 1104.66 1770.99 1105.17C1770.86 1105.82 1767.95 1107.62 1768.08 1108.27C1768.21 1108.91 1771.79 1109.69 1772.19 1110.2C1772.58 1110.72 1773.25 1113.94 1773.91 1113.94C1774.97 1113.81 1776.56 1111.23 1776.96 1111.1C1777.49 1110.85 1780.67 1111.23 1781.19 1110.46C1781.72 1109.69 1779.21 1106.98 1779.08 1106.59C1778.94 1106.2 1780.27 1102.59 1780 1102.21C1779.61 1101.43 1776.29 1102.85 1775.63 1102.85Z" fill="white"/>
<path d="M1774.75 710.581C1774.35 710.581 1771.04 708.131 1770.51 708.518C1769.98 708.904 1770.11 712.386 1770.11 712.901C1769.98 713.546 1767.07 715.351 1767.2 715.996C1767.33 716.641 1770.91 717.414 1771.31 717.93C1771.7 718.446 1772.37 721.669 1773.03 721.669C1774.09 721.54 1775.68 718.962 1776.08 718.833C1776.61 718.575 1779.79 718.962 1780.32 718.188C1780.85 717.414 1778.33 714.707 1778.2 714.32C1778.06 713.933 1779.39 710.323 1779.12 709.936C1778.73 709.162 1775.41 710.581 1774.75 710.581Z" fill="white"/>
<path d="M1634.03 707.942C1633.63 707.942 1630.32 705.492 1629.79 705.879C1629.26 706.266 1629.39 709.747 1629.39 710.263C1629.26 710.908 1626.34 712.713 1626.48 713.357C1626.61 714.002 1630.18 714.776 1630.58 715.291C1630.98 715.807 1631.64 719.031 1632.3 719.031C1633.36 718.902 1634.95 716.323 1635.35 716.194C1635.88 715.936 1639.06 716.323 1639.59 715.549C1640.12 714.776 1637.6 712.068 1637.47 711.681C1637.34 711.294 1638.66 707.684 1638.4 707.297C1638 706.524 1634.69 707.942 1634.03 707.942Z" fill="white"/>
<path d="M1110.71 1057.12C1110.31 1057.12 1107 1054.67 1106.47 1055.05C1105.94 1055.44 1106.07 1058.92 1106.07 1059.44C1105.94 1060.08 1103.02 1061.89 1103.15 1062.53C1103.29 1063.18 1106.86 1063.95 1107.26 1064.47C1107.66 1064.98 1108.32 1068.21 1108.98 1068.21C1110.04 1068.08 1111.63 1065.5 1112.03 1065.37C1112.56 1065.11 1115.74 1065.5 1116.27 1064.72C1116.8 1063.95 1114.28 1061.24 1114.15 1060.86C1114.02 1060.47 1115.34 1056.86 1115.08 1056.47C1114.68 1055.7 1111.37 1057.12 1110.71 1057.12Z" fill="white"/>
<path d="M818.701 916.391C818.303 916.391 814.991 913.941 814.461 914.328C813.931 914.715 814.064 918.196 814.064 918.712C813.931 919.357 811.017 921.162 811.149 921.806C811.282 922.451 814.859 923.225 815.256 923.74C815.654 924.256 816.316 927.48 816.978 927.48C818.038 927.351 819.628 924.772 820.025 924.643C820.555 924.385 823.735 924.772 824.265 923.998C824.795 923.225 822.278 920.517 822.145 920.13C822.013 919.743 823.337 916.133 823.072 915.746C822.675 914.973 819.363 916.391 818.701 916.391Z" fill="white"/>
<path d="M908.413 824.04C908.016 824.04 904.704 821.59 904.174 821.977C903.644 822.364 903.776 825.845 903.776 826.361C903.644 827.006 900.729 828.811 900.862 829.456C900.994 830.1 904.571 830.874 904.969 831.39C905.366 831.905 906.029 835.129 906.691 835.129C907.751 835 909.34 832.421 909.738 832.292C910.268 832.034 913.447 832.421 913.977 831.648C914.507 830.874 911.99 828.166 911.858 827.779C911.725 827.393 913.05 823.782 912.785 823.396C912.387 822.622 909.075 824.04 908.413 824.04Z" fill="white"/>
<path d="M728.109 1050.08C727.711 1050.08 724.399 1047.63 723.87 1048.02C723.34 1048.4 723.472 1051.89 723.472 1052.4C723.34 1053.05 720.425 1054.85 720.558 1055.5C720.69 1056.14 724.267 1056.91 724.664 1057.43C725.062 1057.95 725.724 1061.17 726.387 1061.17C727.447 1061.04 729.036 1058.46 729.434 1058.33C729.964 1058.07 733.143 1058.46 733.673 1057.69C734.203 1056.91 731.686 1054.21 731.553 1053.82C731.421 1053.43 732.746 1049.82 732.481 1049.44C732.083 1048.66 728.771 1050.08 728.109 1050.08Z" fill="white"/>
<path d="M612.011 956.849C611.613 956.849 608.301 954.4 607.771 954.787C607.242 955.173 607.374 958.655 607.374 959.17C607.242 959.815 604.327 961.62 604.459 962.265C604.592 962.91 608.169 963.683 608.566 964.199C608.964 964.715 609.626 967.938 610.289 967.938C611.348 967.809 612.938 965.23 613.336 965.102C613.865 964.844 617.045 965.23 617.575 964.457C618.105 963.683 615.588 960.976 615.455 960.589C615.323 960.202 616.647 956.592 616.383 956.205C615.985 955.431 612.673 956.849 612.011 956.849Z" fill="white"/>
<path d="M751.856 780.064C751.459 780.064 748.147 777.614 747.617 778.001C747.087 778.387 747.22 781.869 747.22 782.385C747.087 783.029 744.173 784.834 744.305 785.479C744.438 786.124 748.015 786.897 748.412 787.413C748.809 787.929 749.472 791.152 750.134 791.152C751.194 791.023 752.784 788.445 753.181 788.316C753.711 788.058 756.891 788.445 757.421 787.671C757.95 786.897 755.433 784.19 755.301 783.803C755.168 783.416 756.493 779.806 756.228 779.419C755.831 778.645 752.519 780.064 751.856 780.064Z" fill="white"/>
<path d="M374.537 496.855C374.14 496.855 370.828 494.405 370.298 494.792C369.768 495.178 369.9 498.66 369.9 499.175C369.768 499.82 366.853 501.625 366.986 502.27C367.118 502.915 370.695 503.688 371.093 504.204C371.49 504.72 372.153 507.943 372.815 507.943C373.875 507.814 375.464 505.235 375.862 505.107C376.392 504.849 379.571 505.235 380.101 504.462C380.631 503.688 378.114 500.981 377.982 500.594C377.849 500.207 379.174 496.597 378.909 496.21C378.511 495.436 375.2 496.855 374.537 496.855Z" fill="white"/>
<path d="M196.871 658.688C196.474 658.688 193.162 656.238 192.632 656.625C192.102 657.012 192.234 660.493 192.234 661.009C192.102 661.654 189.187 663.459 189.32 664.104C189.452 664.748 193.029 665.522 193.427 666.038C193.824 666.553 194.487 669.777 195.149 669.777C196.209 669.648 197.798 667.069 198.196 666.94C198.726 666.682 201.905 667.069 202.435 666.296C202.965 665.522 200.448 662.814 200.316 662.427C200.183 662.041 201.508 658.43 201.243 658.044C200.845 657.27 197.533 658.688 196.871 658.688Z" fill="white"/>
<path d="M323.524 780.064C323.127 780.064 319.815 777.614 319.285 778.001C318.755 778.387 318.888 781.869 318.888 782.385C318.755 783.029 315.841 784.834 315.973 785.479C316.106 786.124 319.683 786.897 320.08 787.413C320.477 787.929 321.14 791.152 321.802 791.152C322.862 791.023 324.452 788.445 324.849 788.316C325.379 788.058 328.559 788.445 329.089 787.671C329.618 786.897 327.101 784.19 326.969 783.803C326.836 783.416 328.161 779.806 327.896 779.419C327.499 778.645 324.187 780.064 323.524 780.064Z" fill="white"/>
<path d="M305.934 589.205C305.536 589.205 302.224 586.755 301.694 587.142C301.164 587.529 301.297 591.01 301.297 591.526C301.164 592.171 298.25 593.976 298.382 594.621C298.515 595.265 302.092 596.039 302.489 596.555C302.887 597.07 303.549 600.294 304.211 600.294C305.271 600.165 306.861 597.586 307.258 597.457C307.788 597.199 310.968 597.586 311.498 596.813C312.028 596.039 309.511 593.331 309.378 592.944C309.246 592.558 310.57 588.947 310.305 588.561C309.908 587.787 306.596 589.205 305.934 589.205Z" fill="white"/>
<path d="M178.401 422.094C178.004 422.094 174.692 419.645 174.162 420.031C173.632 420.418 173.765 423.9 173.765 424.415C173.632 425.06 170.718 426.865 170.85 427.51C170.983 428.154 174.559 428.928 174.957 429.444C175.354 429.96 176.017 433.183 176.679 433.183C177.739 433.054 179.329 430.475 179.726 430.346C180.256 430.089 183.436 430.475 183.965 429.702C184.495 428.928 181.978 426.22 181.846 425.834C181.713 425.447 183.038 421.836 182.773 421.45C182.376 420.676 179.064 422.094 178.401 422.094Z" fill="white"/>
<path d="M210.064 931.343C209.667 931.343 206.355 928.893 205.825 929.28C205.295 929.667 205.428 933.148 205.428 933.664C205.295 934.309 202.381 936.114 202.513 936.758C202.646 937.403 206.223 938.177 206.62 938.693C207.017 939.208 207.68 942.432 208.342 942.432C209.402 942.303 210.992 939.724 211.389 939.595C211.919 939.337 215.099 939.724 215.629 938.95C216.158 938.177 213.641 935.469 213.509 935.082C213.376 934.695 214.701 931.085 214.436 930.698C214.039 929.925 210.727 931.343 210.064 931.343Z" fill="white"/>
<path d="M1744.73 927.749C1744.02 927.749 1738.06 923.34 1737.1 924.036C1736.15 924.732 1736.39 930.999 1736.39 931.927C1736.15 933.087 1730.9 936.337 1731.14 937.497C1731.38 938.658 1737.82 940.05 1738.53 940.978C1739.25 941.907 1740.44 947.709 1741.64 947.709C1743.54 947.477 1746.4 942.835 1747.12 942.603C1748.07 942.139 1753.8 942.835 1754.75 941.443C1755.7 940.05 1751.17 935.176 1750.93 934.48C1750.7 933.784 1753.08 927.285 1752.6 926.589C1751.89 925.196 1745.93 927.749 1744.73 927.749Z" fill="white"/>
<path d="M1127.3 906.641C1126.59 906.641 1120.63 902.231 1119.67 902.927C1118.72 903.624 1118.96 909.89 1118.96 910.818C1118.72 911.979 1113.47 915.228 1113.71 916.388C1113.95 917.549 1120.39 918.941 1121.1 919.87C1121.82 920.798 1123.01 926.6 1124.2 926.6C1126.11 926.368 1128.97 921.726 1129.69 921.494C1130.64 921.03 1136.37 921.726 1137.32 920.334C1138.27 918.941 1133.74 914.068 1133.5 913.371C1133.27 912.675 1135.65 906.176 1135.17 905.48C1134.46 904.088 1128.5 906.641 1127.3 906.641Z" fill="white"/>
<path d="M774.612 554.828C773.897 554.828 767.935 550.418 766.981 551.115C766.027 551.811 766.266 558.077 766.266 559.006C766.027 560.166 760.781 563.415 761.02 564.576C761.258 565.736 767.697 567.129 768.412 568.057C769.127 568.985 770.32 574.787 771.512 574.787C773.42 574.555 776.281 569.914 776.997 569.682C777.95 569.217 783.674 569.914 784.627 568.521C785.581 567.129 781.05 562.255 780.812 561.558C780.573 560.862 782.958 554.364 782.481 553.667C781.766 552.275 775.804 554.828 774.612 554.828Z" fill="white"/>
<path d="M424.558 766.795C423.843 766.795 417.881 762.385 416.927 763.082C415.974 763.778 416.212 770.044 416.212 770.973C415.974 772.133 410.727 775.382 410.966 776.543C411.204 777.703 417.643 779.096 418.358 780.024C419.074 780.952 420.266 786.755 421.458 786.755C423.366 786.522 426.227 781.881 426.943 781.649C427.897 781.185 433.62 781.881 434.574 780.488C435.527 779.096 430.997 774.222 430.758 773.526C430.52 772.829 432.904 766.331 432.427 765.635C431.712 764.242 425.751 766.795 424.558 766.795Z" fill="white"/>
<path d="M351.557 381.56C350.842 381.56 344.88 377.151 343.926 377.847C342.973 378.543 343.211 384.81 343.211 385.738C342.973 386.898 337.726 390.148 337.965 391.308C338.203 392.468 344.642 393.861 345.357 394.789C346.073 395.718 347.265 401.52 348.457 401.52C350.365 401.288 353.226 396.646 353.942 396.414C354.896 395.95 360.619 396.646 361.573 395.254C362.527 393.861 357.996 388.987 357.757 388.291C357.519 387.595 359.903 381.096 359.426 380.4C358.711 379.007 352.75 381.56 351.557 381.56Z" fill="white"/>
<path d="M175.651 876.737C174.936 876.737 168.974 872.327 168.02 873.023C167.066 873.719 167.305 879.986 167.305 880.914C167.066 882.075 161.82 885.324 162.059 886.484C162.297 887.645 168.736 889.037 169.451 889.966C170.166 890.894 171.359 896.696 172.551 896.696C174.459 896.464 177.32 891.822 178.036 891.59C178.989 891.126 184.713 891.822 185.666 890.43C186.62 889.037 182.089 884.163 181.851 883.467C181.613 882.771 183.997 876.272 183.52 875.576C182.805 874.184 176.843 876.737 175.651 876.737Z" fill="white"/>
<path d="M941.8 1291C941.266 1291 936.813 1287.61 936.1 1288.15C935.388 1288.68 935.566 1293.49 935.566 1294.2C935.388 1295.09 931.469 1297.59 931.647 1298.48C931.825 1299.37 936.634 1300.44 937.169 1301.15C937.703 1301.86 938.594 1306.31 939.484 1306.31C940.909 1306.14 943.047 1302.57 943.581 1302.4C944.294 1302.04 948.569 1302.57 949.281 1301.5C949.994 1300.44 946.609 1296.7 946.431 1296.16C946.253 1295.63 948.034 1290.64 947.678 1290.1C947.144 1289.04 942.691 1291 941.8 1291Z" fill="white"/>
<g opacity="0.8" filter="url(#filter0_f)">
<path d="M1726.57 496.972C1726.41 496.173 1720.18 490.582 1720.66 489.464C1721.14 488.186 1728.33 487.227 1729.44 486.748C1730.72 486.269 1733.28 479.559 1734.72 479.719C1736.15 479.719 1739.19 486.588 1740.31 487.227C1741.42 487.866 1748.45 487.706 1748.61 489.144C1748.77 491.221 1744.14 495.534 1743.82 496.493C1743.34 497.771 1745.42 503.841 1744.3 505.119C1742.86 506.557 1736.47 502.563 1735.35 502.563C1734.4 502.563 1727.69 506.557 1726.73 506.238C1725.29 505.439 1726.73 498.25 1726.57 496.972Z" fill="#FDC543"/>
<path opacity="0.28" d="M1735.51 493.138C1731.68 495.375 1728.48 498.09 1726.25 501.285C1726.41 499.368 1726.73 497.611 1726.57 496.972C1726.41 496.173 1720.18 490.582 1720.66 489.464C1721.14 488.186 1728.33 487.227 1729.44 486.748C1730.72 486.269 1733.28 479.559 1734.72 479.719C1736.15 479.719 1739.19 486.588 1740.31 487.227C1741.27 487.706 1746.06 487.866 1747.81 488.505C1743.66 489.464 1739.35 490.901 1735.51 493.138Z" fill="#FDC543"/>
<path opacity="0.7" d="M1731.04 500.327C1732 500.007 1732.8 499.688 1733.76 499.368C1735.04 499.049 1735.67 500.966 1734.4 501.445C1733.44 501.764 1732.48 502.084 1731.68 502.403C1731.2 502.563 1730.56 502.244 1730.4 501.605C1730.08 500.966 1730.56 500.486 1731.04 500.327Z" fill="#FEEDC3"/>
<path opacity="0.7" d="M1737.91 499.528C1738.87 500.007 1739.83 500.327 1740.79 500.806C1741.26 500.966 1741.74 501.445 1741.58 502.084C1741.42 502.563 1740.79 503.043 1740.31 502.883C1739.35 502.404 1738.39 502.084 1737.43 501.605C1736.95 501.445 1736.47 500.966 1736.63 500.327C1736.63 499.847 1737.27 499.368 1737.91 499.528Z" fill="#FEEDC3"/>
</g>
<g opacity="0.6" filter="url(#filter1_f)">
<path d="M165.184 342.936C164.506 344.78 147.967 352.876 148.262 355.902C148.556 358.929 163.519 364.964 165.649 366.64C167.95 368.362 169.8 384.148 173.112 384.851C176.423 385.554 186.526 372.603 189.518 371.747C192.293 371.016 207.373 375.241 208.373 372.193C209.961 367.645 202.387 356.036 202.252 353.789C202.083 350.98 209.972 338.725 208.085 335.456C205.946 331.751 189.721 336.615 187.487 336.016C185.596 335.509 173.289 323.001 170.95 323.479C166.972 323.887 166.265 340.278 165.184 342.936Z" fill="#FED8FF"/>
<path opacity="0.18" d="M176.208 326.547C173.78 324.606 171.776 323.148 170.996 323.308C167.144 323.934 166.265 340.278 165.184 342.936C164.506 344.781 147.968 352.876 148.262 355.902C148.556 358.929 163.519 364.965 165.649 366.641C167.951 368.363 169.8 384.149 173.112 384.852C176.424 385.555 186.526 372.603 189.519 371.747C189.737 371.621 190.081 371.713 190.47 371.633C178.197 359.686 174.595 342.878 176.208 326.547Z" fill="#EE3A85"/>
<path d="M184.462 343.865C187.455 343.008 190.402 342.324 193.474 341.858C195.767 341.551 194.831 338.169 192.538 338.476C189.466 338.942 186.519 339.626 183.526 340.482C181.313 341.179 182.249 344.561 184.462 343.865Z" fill="#E7E6EF"/>
<path d="M198.278 341.119C199.275 340.833 200.055 340.674 201.052 340.389C203.219 339.864 202.284 336.481 200.117 337.006C199.119 337.291 198.339 337.451 197.342 337.736C195.175 338.261 196.111 341.643 198.278 341.119Z" fill="#E7E6EF"/>
</g>
<defs>
<filter id="filter0_f" x="1716.63" y="475.716" width="35.9869" height="34.5398" filterUnits="userSpaceOnUse" color-interpolation-filters="sRGB">
<feFlood flood-opacity="0" result="BackgroundImageFix"/>
<feBlend mode="normal" in="SourceGraphic" in2="BackgroundImageFix" result="shape"/>
<feGaussianBlur stdDeviation="2" result="effect1_foregroundBlur"/>
</filter>
<filter id="filter1_f" x="138.632" y="315.716" width="83.4448" height="81.1065" filterUnits="userSpaceOnUse" color-interpolation-filters="sRGB">
<feFlood flood-opacity="0" result="BackgroundImageFix"/>
<feBlend mode="normal" in="SourceGraphic" in2="BackgroundImageFix" result="shape"/>
<feGaussianBlur stdDeviation="2" result="effect1_foregroundBlur"/>
</filter>
<linearGradient id="paint0_linear" x1="352.358" y1="-595.057" x2="1782.73" y2="2677.05" gradientUnits="userSpaceOnUse">
<stop stop-color="white" stop-opacity="0.83"/>
<stop offset="0.453166" stop-color="white" stop-opacity="0.88"/>
<stop offset="0.938708" stop-color="white" stop-opacity="0.53"/>
</linearGradient>
</defs>
</svg>
